<svg width="864" height="1117" viewBox="0 0 864 1117" fill="none" xmlns="http://www.w3.org/2000/svg">
<g clip-path="url(#clip0_19_12702)">
<rect width="864" height="1117" fill="#D71920"/>
<path d="M-3.05176 738.146L-119 1107.63L-2.35303 1118.18C97.5813 1127.22 132.561 1077.43 92.3368 979.914C52.1125 882.401 -3.05176 738.146 -3.05176 738.146Z" fill="#D50108"/>
<path d="M204.457 1059.52L320.406 690.035C320.406 690.035 294.484 687.69 203.076 679.422C111.669 671.153 70.8045 721.102 99.976 800.422C129.147 879.742 204.457 1059.52 204.457 1059.52Z" fill="#D50108"/>
<path d="M440 1630C535.001 1545.67 590.213 1593.41 685.213 1509.07C780.213 1424.75 725.001 1377 819.973 1292.7C914.946 1208.38 970.186 1256.1 1065.19 1171.77C1160.18 1087.43 1104.97 1039.69 1199.97 955.359C1294.98 871.025 1350.18 918.767 1445.22 834.409C1540.24 750.051 1485 702.334 1580 618" stroke="#C90800" stroke-width="0.598241" stroke-miterlimit="10"/>
<path d="M-639 679C-544.084 594.75 -488.919 642.445 -394.003 558.195C-299.086 473.945 -354.251 426.25 -259.361 342.024C-164.472 257.799 -109.28 305.469 -14.3632 221.219C80.5534 136.969 25.3889 89.2745 120.306 5.02405C215.222 -79.226 270.387 -31.5309 365.33 -115.805C460.275 -200.079 405.083 -247.75 500 -332" stroke="#C90800" stroke-width="0.598241" stroke-miterlimit="10"/>
<path d="M50 1275C145.083 1190.75 200.345 1238.45 295.428 1154.2C390.512 1069.94 335.25 1022.25 430.307 938.025C525.362 853.799 580.651 901.469 675.735 817.219C770.818 732.969 715.557 685.275 810.641 601.025C905.724 516.775 960.985 564.469 1056.1 480.195C1151.21 395.92 1095.92 348.25 1191 264" stroke="#C90800" stroke-width="0.598241" stroke-miterlimit="10"/>
<path d="M-297 972C-202.166 887.75 -147.05 935.445 -52.2167 851.195C42.6166 766.945 -12.4995 719.251 82.3066 635.025C177.112 550.799 232.256 598.47 327.089 514.22C421.923 429.97 366.806 382.274 461.64 298.024C556.473 213.774 611.589 261.469 706.45 177.195C801.311 92.9207 746.167 45.2501 841 -39" stroke="#C90800" stroke-width="0.598241" stroke-miterlimit="10"/>
<path d="M390 1575C485 1490.76 540.213 1538.45 635.212 1454.19C730.212 1369.95 674.999 1322.25 769.972 1238.03C864.944 1153.8 920.184 1201.47 1015.18 1117.22C1110.18 1032.97 1054.97 985.276 1149.96 901.025C1244.97 816.775 1300.18 864.47 1395.21 780.196C1490.24 695.922 1435 648.25 1530 564" stroke="#C90800" stroke-width="0.598241" stroke-miterlimit="10"/>
<path d="M-472 837C-376.833 752.75 -321.523 800.444 -226.357 716.194C-131.19 631.944 -186.499 584.25 -91.3604 500.024C3.77891 415.798 59.1161 463.469 154.282 379.219C249.45 294.969 194.14 247.274 289.306 163.024C384.473 78.774 439.783 126.469 534.977 42.1951C630.17 -42.079 574.834 -89.75 670 -174" stroke="#C90800" stroke-width="0.598241" stroke-miterlimit="10"/>
<path d="M217 1431C312.167 1346.58 367.477 1394.36 462.642 1309.96C557.809 1225.54 502.499 1177.75 597.638 1093.35C692.777 1008.96 748.114 1056.73 843.28 972.311C938.447 887.895 883.137 840.106 978.303 755.689C1073.47 671.273 1128.78 719.062 1223.97 634.622C1319.17 550.182 1263.83 502.416 1359 418" stroke="#C90800" stroke-width="0.598241" stroke-miterlimit="10"/>
<path d="M-131 1129C-36 1044.75 19.2129 1092.45 114.213 1008.2C209.213 923.945 154 876.25 248.973 792.025C343.945 707.799 399.185 755.469 494.186 671.219C589.185 586.969 533.972 539.275 628.973 455.025C723.972 370.775 779.185 418.47 874.213 334.195C969.24 249.921 913.999 202.25 1009 118" stroke="#C90800" stroke-width="0.598241" stroke-miterlimit="10"/>
<path d="M556 1732C650.917 1647.75 706.081 1695.45 800.998 1611.2C895.914 1526.94 840.751 1479.25 935.64 1395.02C1030.53 1310.8 1085.72 1358.47 1180.64 1274.22C1275.56 1189.97 1220.39 1142.27 1315.31 1058.02C1410.23 973.774 1465.38 1021.47 1560.33 937.195C1655.27 852.921 1600.08 805.25 1695 721" stroke="#C90800" stroke-width="0.598241" stroke-miterlimit="10"/>
<path d="M-663 652C-568.001 567.75 -512.787 615.445 -417.788 531.195C-322.787 446.945 -378.001 399.25 -283.027 315.024C-188.055 230.798 -132.815 278.469 -37.8149 194.219C57.1851 109.969 1.97222 62.2745 96.9726 -21.9756C191.972 -106.226 247.185 -58.5316 342.212 -142.806C437.24 -227.08 381.999 -274.75 477 -359" stroke="#C90800" stroke-width="0.598241" stroke-miterlimit="10"/>
<path d="M29 1248C123.917 1163.75 179.081 1211.45 273.997 1127.19C368.914 1042.94 313.749 995.249 408.639 911.023C503.527 826.797 558.719 874.468 653.635 790.218C748.552 705.968 693.388 658.273 788.305 574.023C883.22 489.774 938.385 537.469 1033.33 453.195C1128.28 368.92 1073.08 321.25 1168 237" stroke="#C90800" stroke-width="0.598241" stroke-miterlimit="10"/>
<path d="M-322 945C-226.916 860.75 -171.655 908.444 -76.5714 824.195C18.5119 739.945 -36.7495 692.25 58.3065 608.024C153.362 523.798 208.651 571.469 303.734 487.219C398.818 402.969 343.556 355.274 438.64 271.024C533.723 186.774 588.985 234.469 684.095 150.195C779.206 65.921 723.917 18.25 819 -66" stroke="#C90800" stroke-width="0.598241" stroke-miterlimit="10"/>
<path d="M367 1548C462.084 1463.75 517.346 1511.45 612.429 1427.19C707.513 1342.94 652.251 1295.25 747.307 1211.02C842.363 1126.8 897.652 1174.47 992.735 1090.22C1087.82 1005.97 1032.56 958.275 1127.64 874.025C1222.72 789.775 1277.99 837.469 1373.1 753.194C1468.21 668.92 1412.92 621.25 1508 537" stroke="#C90800" stroke-width="0.598241" stroke-miterlimit="10"/>
<path d="M-497 808C-401.833 723.75 -346.523 771.445 -251.357 687.195C-156.189 602.945 -211.499 555.25 -116.36 471.024C-21.2211 386.798 34.1161 434.469 129.282 350.219C224.45 265.969 169.14 218.274 264.306 134.024C359.473 49.774 414.783 97.4693 509.977 13.1951C605.17 -71.079 549.834 -118.75 645 -203" stroke="#C90800" stroke-width="0.598241" stroke-miterlimit="10"/>
<path d="M194 1403C289.083 1318.59 344.345 1366.37 439.429 1281.96C534.512 1197.54 479.25 1149.75 574.307 1065.36C669.362 980.967 724.651 1028.73 819.735 944.315C914.818 859.898 859.557 812.109 954.641 727.692C1049.72 643.275 1104.99 691.064 1200.1 606.623C1295.21 522.182 1239.92 474.417 1335 390" stroke="#C90800" stroke-width="0.598241" stroke-miterlimit="10"/>
<path d="M-154 1102C-59.0831 1017.67 -3.91863 1065.41 90.998 981.076C185.914 896.742 130.751 849.001 225.639 764.691C320.529 680.382 375.721 728.1 470.637 643.767C565.554 559.433 510.39 511.691 605.306 427.358C700.223 343.024 755.388 390.767 850.331 306.409C945.275 222.051 890.084 174.333 985 90" stroke="#C90800" stroke-width="0.598241" stroke-miterlimit="10"/>
<path d="M534 1705C629.082 1620.75 684.344 1668.44 779.426 1584.2C874.51 1499.94 819.249 1452.24 914.305 1368.02C1009.36 1283.8 1064.65 1331.47 1159.73 1247.22C1254.81 1162.97 1199.56 1115.27 1294.63 1031.02C1389.71 946.774 1444.98 994.468 1540.09 910.194C1635.21 825.921 1579.92 778.25 1675 694" stroke="#C90800" stroke-width="0.598241" stroke-miterlimit="10"/>
<path d="M-725 602C-630.084 517.75 -574.919 565.445 -480.002 481.195C-385.086 396.945 -440.251 349.251 -345.361 265.025C-250.472 180.799 -195.28 228.469 -100.363 144.219C-5.44647 59.9696 -60.611 12.2745 34.3057 -71.9756C129.222 -156.226 184.387 -108.531 279.331 -192.805C374.275 -277.08 319.083 -324.75 414 -409" stroke="#C90800" stroke-width="0.598241" stroke-miterlimit="10"/>
<path d="M-38 1198C57.1667 1113.75 112.476 1161.44 207.643 1077.19C302.809 992.943 247.5 945.248 342.639 861.023C437.779 776.797 493.116 824.468 588.282 740.218C683.45 655.968 628.14 608.273 723.306 524.023C818.473 439.773 873.783 487.468 968.977 403.194C1064.17 318.921 1008.83 271.25 1104 187" stroke="#C90800" stroke-width="0.598241" stroke-miterlimit="10"/>
<path d="M-389 905C-293.834 820.583 -238.524 868.373 -143.358 783.956C-48.1907 699.539 -103.5 651.75 -8.36118 567.358C86.7781 482.965 142.115 530.73 237.281 446.313C332.449 361.896 277.139 314.108 372.306 229.691C467.472 145.274 522.782 193.063 617.976 108.622C713.17 24.1811 657.833 -23.5832 753 -108" stroke="#C90800" stroke-width="0.598241" stroke-miterlimit="10"/>
<path d="M300 1497C395.166 1412.75 450.477 1460.45 545.644 1376.19C640.811 1291.94 585.502 1244.25 680.641 1160.03C775.781 1075.8 831.117 1123.47 926.285 1039.22C1021.45 954.97 966.142 907.275 1061.31 823.025C1156.47 738.775 1211.79 786.47 1306.98 702.196C1402.17 617.92 1346.83 570.25 1442 486" stroke="#C90800" stroke-width="0.598241" stroke-miterlimit="10"/>
<path d="M-560 759C-464.999 674.75 -409.787 722.445 -314.787 638.195C-219.787 553.945 -274.999 506.25 -180.027 422.025C-85.0546 337.799 -29.8143 385.469 65.1856 301.219C160.185 216.969 104.973 169.274 199.973 85.0244C294.973 0.774288 350.185 48.4684 445.213 -35.8057C540.24 -120.08 485.001 -167.75 580 -252" stroke="#C90800" stroke-width="0.598241" stroke-miterlimit="10"/>
<path d="M132 1353C226.916 1268.67 282.081 1316.41 376.999 1232.08C471.916 1147.74 416.751 1100 511.641 1015.69C606.531 931.384 661.722 979.102 756.64 894.769C851.556 810.435 796.391 762.692 891.309 678.359C986.225 594.025 1041.39 641.768 1136.33 557.41C1231.27 473.051 1176.08 425.334 1271 341" stroke="#C90800" stroke-width="0.598241" stroke-miterlimit="10"/>
<path d="M-220 1050C-125 965.667 -69.7872 1013.41 25.2128 929.076C120.213 844.742 64.9999 797 159.973 712.691C254.946 628.381 310.185 676.1 405.186 591.766C500.185 507.433 444.972 459.691 539.973 375.357C634.972 291.025 690.185 338.766 785.213 254.409C880.24 170.051 824.999 122.334 920 38" stroke="#C90800" stroke-width="0.598241" stroke-miterlimit="10"/>
<path d="M470 1655C564.916 1570.75 620.081 1618.44 714.998 1534.2C809.913 1449.94 754.749 1402.24 849.638 1318.02C944.528 1233.8 999.719 1281.47 1094.64 1197.22C1189.55 1112.97 1134.39 1065.27 1229.31 981.023C1324.23 896.774 1379.38 944.468 1474.32 860.194C1569.28 775.92 1514.08 728.25 1609 644" stroke="#C90800" stroke-width="0.598241" stroke-miterlimit="10"/>
<path d="M-610 705C-515.001 620.667 -459.787 668.409 -364.787 584.076C-269.787 499.742 -325.001 452 -230.027 367.691C-135.055 283.382 -79.8147 331.1 15.1853 246.766C110.185 162.433 54.9723 114.691 149.973 30.3574C244.972 -53.9759 300.185 -6.23371 395.213 -90.5911C490.24 -174.948 434.999 -222.667 530 -307" stroke="#C90800" stroke-width="0.598241" stroke-miterlimit="10"/>
<path d="M79 1300C173.834 1215.76 228.949 1263.45 323.783 1179.2C418.616 1094.95 363.5 1047.25 458.306 963.027C553.112 878.8 608.256 926.471 703.089 842.22C797.923 757.97 742.806 710.276 837.639 626.025C932.473 541.775 987.589 589.47 1082.45 505.195C1177.31 420.921 1122.17 373.25 1217 289" stroke="#C90800" stroke-width="0.598241" stroke-miterlimit="10"/>
<path d="M-271 997C-176.166 912.667 -121.05 960.408 -26.2171 876.075C68.6163 791.741 13.5002 744 108.306 659.691C203.112 575.381 258.256 623.1 353.089 538.766C447.923 454.433 392.807 406.691 487.639 322.357C582.473 238.024 637.589 285.766 732.45 201.409C827.31 117.051 772.167 69.3333 867 -15" stroke="#C90800" stroke-width="0.598241" stroke-miterlimit="10"/>
<path d="M417 1601C512.083 1516.58 567.344 1564.36 662.427 1479.96C757.509 1395.54 702.249 1347.74 797.304 1263.36C892.36 1178.96 947.648 1226.73 1042.73 1142.31C1137.81 1057.9 1082.55 1010.11 1177.63 925.69C1272.72 841.273 1327.98 889.063 1423.09 804.622C1518.21 720.182 1462.92 672.416 1558 588" stroke="#C90800" stroke-width="0.598241" stroke-miterlimit="10"/>
<path d="M-447 860C-351.749 775.75 -296.392 823.444 -201.142 739.194C-105.892 654.945 -161.249 607.25 -66.0273 523.024C29.1953 438.798 84.5809 486.469 179.831 402.219C275.08 317.969 219.723 270.274 314.973 186.024C410.223 101.774 465.58 149.469 560.858 65.1951C656.135 -19.079 600.751 -66.75 696 -151" stroke="#C90800" stroke-width="0.598241" stroke-miterlimit="10"/>
<path d="M244 1455C339.084 1370.75 394.345 1418.45 489.429 1334.2C584.512 1249.94 529.252 1202.24 624.307 1118.02C719.364 1033.8 774.652 1081.47 869.737 997.219C964.82 912.969 909.559 865.274 1004.64 781.024C1099.73 696.775 1154.99 744.469 1250.1 660.195C1345.21 575.921 1289.92 528.25 1385 444" stroke="#C90800" stroke-width="0.598241" stroke-miterlimit="10"/>
<path d="M-105 1153C-9.91668 1068.67 45.3447 1116.41 140.428 1032.08C235.511 947.742 180.249 900 275.306 815.691C370.362 731.382 425.65 779.099 520.734 694.766C615.817 610.433 560.555 562.691 655.639 478.358C750.722 394.024 805.984 441.767 901.095 357.408C996.205 273.051 940.916 225.333 1036 141" stroke="#C90800" stroke-width="0.598241" stroke-miterlimit="10"/>
<path d="M583 1756C678.166 1671.75 733.476 1719.45 828.643 1635.19C923.809 1550.94 868.499 1503.25 963.639 1419.02C1058.78 1334.8 1114.11 1382.47 1209.28 1298.22C1304.44 1213.97 1249.14 1166.28 1344.31 1082.03C1439.48 997.775 1494.78 1045.47 1589.98 961.196C1685.17 876.921 1629.83 829.25 1725 745" stroke="#C90800" stroke-width="0.598241" stroke-miterlimit="10"/>
<path d="M-247 1027C-151.916 942.75 -96.6552 990.445 -1.57185 906.195C93.511 821.945 38.2501 774.25 133.306 690.024C228.362 605.798 283.651 653.469 378.734 569.219C473.818 484.969 418.556 437.274 513.639 353.024C608.723 268.774 663.985 316.469 759.095 232.195C854.205 147.921 798.917 100.25 894 16" stroke="#C90800" stroke-width="0.598241" stroke-miterlimit="10"/>
<path d="M-755 578C-659.834 493.75 -604.524 541.445 -509.357 457.195C-414.191 372.945 -469.499 325.251 -374.361 241.025C-279.221 156.799 -223.885 204.469 -128.718 120.219C-33.5509 35.9696 -88.8607 -11.7255 6.30597 -95.9756C101.473 -180.226 156.782 -132.531 251.977 -216.805C347.17 -301.08 291.833 -348.75 387 -433" stroke="#C90800" stroke-width="0.598241" stroke-miterlimit="10"/>
<path d="M-66 1174C29.0834 1089.67 84.3447 1137.41 179.428 1053.07C274.512 968.741 219.25 921 314.307 836.691C409.362 752.381 464.651 800.1 559.734 715.766C654.818 631.433 599.556 583.691 694.64 499.357C789.723 415.024 844.985 462.766 940.095 378.409C1035.21 294.051 979.917 246.333 1075 162" stroke="#C90800" stroke-width="0.598241" stroke-miterlimit="10"/>
<path d="M-415 879C-319.917 794.75 -264.656 842.445 -169.572 758.195C-74.4889 673.945 -129.75 626.25 -34.6941 542.024C60.3618 457.799 115.65 505.469 210.734 421.219C305.817 336.969 250.555 289.274 345.639 205.024C440.722 120.774 495.984 168.469 591.095 84.1945C686.205 -0.0798258 630.916 -47.7499 726 -132" stroke="#C90800" stroke-width="0.598241" stroke-miterlimit="10"/>
<path d="M274 1474C369.25 1389.75 424.608 1437.45 519.857 1353.2C615.108 1268.94 559.749 1221.24 654.971 1137.02C750.194 1052.8 805.579 1100.47 900.828 1016.22C996.079 931.969 940.72 884.274 1035.97 800.024C1131.22 715.774 1186.58 763.469 1281.85 679.195C1377.14 594.92 1321.75 547.25 1417 463" stroke="#C90800" stroke-width="0.598241" stroke-miterlimit="10"/>
<path d="M-588 735C-492.916 650.583 -437.655 698.373 -342.572 613.956C-247.488 529.539 -302.749 481.75 -207.694 397.357C-112.638 312.965 -57.349 360.73 37.7343 276.313C132.818 191.897 77.5563 144.107 172.639 59.6911C267.723 -24.7257 322.985 23.0628 418.095 -61.378C513.205 -145.819 457.917 -193.583 553 -278" stroke="#C90800" stroke-width="0.598241" stroke-miterlimit="10"/>
<path d="M103 1330C197.833 1245.66 252.949 1293.41 347.782 1209.08C442.615 1124.74 387.499 1077 482.304 992.691C577.11 908.382 632.253 956.1 727.086 871.767C821.919 787.433 766.803 739.691 861.635 655.358C956.469 571.024 1011.58 618.767 1106.44 534.409C1201.31 450.051 1146.17 402.333 1241 318" stroke="#C90800" stroke-width="0.598241" stroke-miterlimit="10"/>
<path d="M-689 629C-594.084 544.75 -538.919 592.445 -444.002 508.195C-349.086 423.945 -404.251 376.25 -309.361 292.024C-214.471 207.799 -159.28 255.469 -64.363 171.219C30.5537 86.9693 -24.6108 39.274 70.3059 -44.975C165.222 -129.225 220.387 -81.5309 315.331 -165.805C410.275 -250.079 355.083 -297.75 450 -382" stroke="#C90800" stroke-width="0.598241" stroke-miterlimit="10"/>
<path d="M0 1225C95.0831 1140.5 150.345 1188.34 245.427 1103.84C340.511 1019.34 285.25 971.503 380.306 887.028C475.361 802.551 530.65 850.363 625.734 765.863C720.817 681.362 665.555 633.526 760.639 549.026C855.722 464.526 910.984 512.361 1006.09 427.837C1101.21 343.312 1045.92 295.501 1141 211" stroke="#C90800" stroke-width="0.598241" stroke-miterlimit="10"/>
<path d="M-351 922C-255.751 837.75 -200.392 885.444 -105.142 801.194C-9.89212 716.944 -65.2503 669.25 29.9724 585.024C125.194 500.798 180.58 548.469 275.831 464.219C371.08 379.969 315.722 332.274 410.973 248.024C506.222 163.774 561.58 211.469 656.858 127.195C752.135 42.921 696.749 -4.75 792 -89" stroke="#C90800" stroke-width="0.598241" stroke-miterlimit="10"/>
<path d="M338 1526C433.084 1441.75 488.345 1489.45 583.429 1405.2C678.512 1320.94 623.252 1273.24 718.307 1189.02C813.364 1104.8 868.654 1152.47 963.737 1068.22C1058.82 983.968 1003.56 936.274 1098.64 852.024C1193.72 767.774 1248.99 815.468 1344.1 731.194C1439.21 646.92 1383.92 599.25 1479 515" stroke="#C90800" stroke-width="0.598241" stroke-miterlimit="10"/>
<path d="M-525 786C-429.583 701.417 -374.129 749.301 -278.711 664.717C-183.295 580.134 -238.749 532.25 -143.361 447.691C-47.9714 363.132 7.51115 410.991 102.928 326.408C198.345 241.825 142.89 193.941 238.306 109.358C333.723 24.7741 389.178 72.6579 484.622 -11.9496C580.066 -96.557 524.584 -144.417 620 -229" stroke="#C90800" stroke-width="0.598241" stroke-miterlimit="10"/>
<path d="M166 1378C260.916 1293.75 316.081 1341.45 410.999 1257.2C505.916 1172.95 450.752 1125.25 545.641 1041.02C640.531 956.798 695.722 1004.47 790.64 920.219C885.556 835.969 830.393 788.274 925.309 704.024C1020.23 619.774 1075.39 667.469 1170.33 583.195C1265.27 498.921 1210.08 451.25 1305 367" stroke="#C90800" stroke-width="0.598241" stroke-miterlimit="10"/>
<path d="M-184 1078C-88.8333 993.75 -33.5235 1041.45 61.6431 957.195C156.809 872.945 101.501 825.251 196.639 741.025C291.779 656.799 347.115 704.47 442.282 620.22C537.449 535.97 482.14 488.274 577.306 404.024C672.473 319.774 727.782 367.469 822.977 283.195C918.17 198.921 862.834 151.25 958 67" stroke="#C90800" stroke-width="0.598241" stroke-miterlimit="10"/>
<path d="M507 1682C601.833 1597.42 656.949 1645.3 751.783 1560.72C846.615 1476.14 791.499 1428.25 886.306 1343.7C981.112 1259.13 1036.25 1306.99 1131.08 1222.41C1225.92 1137.83 1170.81 1089.94 1265.64 1005.36C1360.48 920.775 1415.59 968.659 1510.45 884.051C1605.31 799.444 1550.17 751.584 1645 667" stroke="#C90800" stroke-width="0.598241" stroke-miterlimit="10"/>
<path d="M115.68 923.48C112.853 923.48 110.4 922.96 108.32 921.92C106.267 920.88 104.68 919.307 103.56 917.2C102.467 915.093 101.92 912.453 101.92 909.28C101.92 906.08 102.467 903.44 103.56 901.36C104.68 899.253 106.267 897.68 108.32 896.64C110.4 895.6 112.853 895.08 115.68 895.08C118.56 895.08 121.027 895.6 123.08 896.64C125.133 897.68 126.707 899.253 127.8 901.36C128.92 903.44 129.48 906.08 129.48 909.28C129.48 912.453 128.92 915.093 127.8 917.2C126.707 919.307 125.133 920.88 123.08 921.92C121.027 922.96 118.56 923.48 115.68 923.48ZM115.68 919.68C117.147 919.68 118.44 919.48 119.56 919.08C120.707 918.68 121.667 918.067 122.44 917.24C123.24 916.413 123.84 915.373 124.24 914.12C124.667 912.867 124.88 911.413 124.88 909.76V908.88C124.88 907.173 124.667 905.693 124.24 904.44C123.84 903.187 123.24 902.147 122.44 901.32C121.667 900.493 120.707 899.88 119.56 899.48C118.44 899.08 117.147 898.88 115.68 898.88C114.24 898.88 112.947 899.08 111.8 899.48C110.68 899.88 109.72 900.493 108.92 901.32C108.147 902.147 107.56 903.187 107.16 904.44C106.76 905.693 106.56 907.173 106.56 908.88V909.76C106.56 911.413 106.76 912.867 107.16 914.12C107.56 915.373 108.147 916.413 108.92 917.24C109.72 918.067 110.68 918.68 111.8 919.08C112.947 919.48 114.24 919.68 115.68 919.68ZM134.086 923V901.96H137.526L137.886 904.96H138.166C138.673 904.187 139.273 903.547 139.966 903.04C140.66 902.533 141.42 902.147 142.246 901.88C143.1 901.613 144.033 901.48 145.046 901.48C146.38 901.48 147.553 901.72 148.566 902.2C149.58 902.653 150.366 903.4 150.926 904.44C151.513 905.48 151.806 906.88 151.806 908.64V923H147.646V909.28C147.646 908.48 147.54 907.813 147.326 907.28C147.14 906.747 146.86 906.32 146.486 906C146.113 905.68 145.673 905.453 145.166 905.32C144.66 905.187 144.1 905.12 143.486 905.12C142.526 905.12 141.646 905.36 140.846 905.84C140.073 906.293 139.446 906.933 138.966 907.76C138.486 908.587 138.246 909.56 138.246 910.68V923H134.086ZM165.736 923.48C163.576 923.48 161.763 923.093 160.296 922.32C158.856 921.52 157.763 920.307 157.016 918.68C156.269 917.053 155.896 914.987 155.896 912.48C155.896 909.947 156.269 907.88 157.016 906.28C157.763 904.653 158.869 903.453 160.336 902.68C161.803 901.88 163.629 901.48 165.816 901.48C167.816 901.48 169.483 901.867 170.816 902.64C172.176 903.387 173.203 904.533 173.896 906.08C174.589 907.627 174.936 909.573 174.936 911.92V913.52H160.176C160.229 915.013 160.456 916.267 160.856 917.28C161.256 918.267 161.856 919 162.656 919.48C163.483 919.933 164.523 920.16 165.776 920.16C166.549 920.16 167.243 920.067 167.856 919.88C168.469 919.667 168.989 919.373 169.416 919C169.843 918.6 170.176 918.133 170.416 917.6C170.656 917.04 170.776 916.413 170.776 915.72H174.856C174.856 916.973 174.643 918.08 174.216 919.04C173.789 920 173.163 920.813 172.336 921.48C171.536 922.12 170.576 922.613 169.456 922.96C168.336 923.307 167.096 923.48 165.736 923.48ZM160.256 910.48H170.576C170.576 909.44 170.456 908.573 170.216 907.88C170.003 907.16 169.683 906.573 169.256 906.12C168.829 905.667 168.323 905.347 167.736 905.16C167.149 904.947 166.483 904.84 165.736 904.84C164.616 904.84 163.656 905.04 162.856 905.44C162.083 905.84 161.483 906.467 161.056 907.32C160.629 908.147 160.363 909.2 160.256 910.48ZM187.928 923V895.56H202.488C204.008 895.56 205.341 895.84 206.488 896.4C207.634 896.933 208.528 897.707 209.168 898.72C209.834 899.733 210.168 900.92 210.168 902.28C210.168 903.32 209.968 904.267 209.568 905.12C209.194 905.973 208.661 906.693 207.968 907.28C207.301 907.867 206.541 908.307 205.688 908.6V908.76C206.674 908.973 207.554 909.373 208.328 909.96C209.128 910.52 209.754 911.267 210.208 912.2C210.688 913.107 210.928 914.2 210.928 915.48C210.928 917.213 210.541 918.64 209.768 919.76C209.021 920.88 208.021 921.707 206.768 922.24C205.514 922.747 204.088 923 202.488 923H187.928ZM192.408 919.16H202.128C203.354 919.16 204.354 918.84 205.128 918.2C205.928 917.533 206.328 916.467 206.328 915C206.328 914.12 206.154 913.373 205.807 912.76C205.488 912.12 204.994 911.64 204.328 911.32C203.661 910.973 202.821 910.8 201.808 910.8H192.408V919.16ZM192.408 907.04H201.448C202.301 907.04 203.034 906.88 203.648 906.56C204.261 906.24 204.728 905.787 205.048 905.2C205.394 904.613 205.568 903.96 205.568 903.24C205.568 901.933 205.208 900.973 204.488 900.36C203.794 899.72 202.874 899.4 201.728 899.4H192.408V907.04ZM215.453 923V901.96H218.893L219.253 905.36H219.493C219.733 904.693 220.04 904.067 220.413 903.48C220.813 902.893 221.32 902.413 221.933 902.04C222.573 901.667 223.347 901.48 224.253 901.48C224.68 901.48 225.053 901.52 225.373 901.6C225.72 901.68 225.987 901.747 226.173 901.8V905.72H224.773C223.92 905.72 223.16 905.853 222.493 906.12C221.853 906.387 221.307 906.787 220.853 907.32C220.427 907.827 220.107 908.453 219.893 909.2C219.707 909.947 219.613 910.787 219.613 911.72V923H215.453ZM234.211 923.48C233.544 923.48 232.824 923.4 232.051 923.24C231.278 923.08 230.544 922.787 229.851 922.36C229.184 921.933 228.638 921.347 228.211 920.6C227.784 919.827 227.571 918.827 227.571 917.6C227.571 916.16 227.904 914.973 228.571 914.04C229.238 913.107 230.171 912.373 231.371 911.84C232.571 911.307 233.998 910.933 235.651 910.72C237.331 910.507 239.158 910.4 241.131 910.4V908.32C241.131 907.627 241.011 907.013 240.771 906.48C240.558 905.947 240.144 905.533 239.531 905.24C238.944 904.947 238.091 904.8 236.971 904.8C235.851 904.8 234.971 904.947 234.331 905.24C233.718 905.507 233.278 905.853 233.011 906.28C232.771 906.68 232.651 907.12 232.651 907.6V908.2H228.651C228.624 908.067 228.611 907.933 228.611 907.8C228.611 907.667 228.611 907.507 228.611 907.32C228.611 906.067 228.958 905.013 229.651 904.16C230.371 903.28 231.371 902.613 232.651 902.16C233.931 901.707 235.411 901.48 237.091 901.48C238.904 901.48 240.411 901.747 241.611 902.28C242.838 902.787 243.758 903.52 244.371 904.48C244.984 905.44 245.291 906.6 245.291 907.96V918.64C245.291 919.147 245.411 919.507 245.651 919.72C245.918 919.933 246.224 920.04 246.571 920.04H248.011V922.84C247.691 922.973 247.291 923.107 246.811 923.24C246.331 923.373 245.771 923.44 245.131 923.44C244.411 923.44 243.798 923.307 243.291 923.04C242.811 922.8 242.411 922.453 242.091 922C241.798 921.52 241.598 920.987 241.491 920.4H241.251C240.771 921.013 240.184 921.56 239.491 922.04C238.824 922.493 238.051 922.84 237.171 923.08C236.291 923.347 235.304 923.48 234.211 923.48ZM235.371 920.04C236.198 920.04 236.958 919.92 237.651 919.68C238.371 919.413 238.984 919.053 239.491 918.6C239.998 918.12 240.398 917.56 240.691 916.92C240.984 916.253 241.131 915.533 241.131 914.76V913.36C239.291 913.36 237.678 913.467 236.291 913.68C234.904 913.893 233.824 914.293 233.051 914.88C232.278 915.44 231.891 916.227 231.891 917.24C231.891 917.853 232.024 918.373 232.291 918.8C232.558 919.2 232.958 919.507 233.491 919.72C234.024 919.933 234.651 920.04 235.371 920.04ZM250.883 923V901.96H254.323L254.683 904.96H254.963C255.47 904.187 256.07 903.547 256.763 903.04C257.456 902.533 258.216 902.147 259.043 901.88C259.896 901.613 260.83 901.48 261.843 901.48C263.176 901.48 264.35 901.72 265.363 902.2C266.376 902.653 267.163 903.4 267.723 904.44C268.31 905.48 268.603 906.88 268.603 908.64V923H264.443V909.28C264.443 908.48 264.336 907.813 264.123 907.28C263.936 906.747 263.656 906.32 263.283 906C262.91 905.68 262.47 905.453 261.963 905.32C261.456 905.187 260.896 905.12 260.283 905.12C259.323 905.12 258.443 905.36 257.643 905.84C256.87 906.293 256.243 906.933 255.763 907.76C255.283 908.587 255.043 909.56 255.043 910.68V923H250.883ZM281.053 923.48C279.346 923.48 277.866 923.093 276.613 922.32C275.359 921.547 274.386 920.347 273.693 918.72C273.026 917.093 272.693 914.987 272.693 912.4C272.693 909.867 273.039 907.8 273.733 906.2C274.426 904.6 275.386 903.413 276.613 902.64C277.839 901.867 279.253 901.48 280.853 901.48C281.786 901.48 282.653 901.587 283.453 901.8C284.253 902.013 284.959 902.347 285.573 902.8C286.213 903.253 286.746 903.827 287.173 904.52H287.453V894.08H291.613V923H288.213L287.813 920.12H287.533C286.839 921.24 285.919 922.08 284.773 922.64C283.653 923.2 282.413 923.48 281.053 923.48ZM282.213 919.88C283.439 919.88 284.426 919.613 285.173 919.08C285.946 918.52 286.519 917.72 286.893 916.68C287.266 915.613 287.453 914.32 287.453 912.8V912.24C287.453 910.96 287.333 909.867 287.093 908.96C286.853 908.053 286.506 907.32 286.053 906.76C285.599 906.173 285.053 905.747 284.413 905.48C283.773 905.213 283.053 905.08 282.253 905.08C281.026 905.08 280.026 905.333 279.253 905.84C278.479 906.32 277.906 907.08 277.533 908.12C277.186 909.16 277.013 910.507 277.013 912.16V912.88C277.013 914.533 277.199 915.88 277.573 916.92C277.946 917.933 278.506 918.68 279.253 919.16C280.026 919.64 281.013 919.88 282.213 919.88Z" fill="white"/>
<path d="M123.28 1005.72C116.92 1005.72 111.98 1004.02 108.46 1000.62C104.94 997.18 103.18 991.78 103.18 984.42C103.18 979.58 104 975.6 105.64 972.48C107.32 969.32 109.72 966.98 112.84 965.46C116 963.9 119.78 963.12 124.18 963.12C126.82 963.12 129.3 963.42 131.62 964.02C133.94 964.62 135.98 965.54 137.74 966.78C139.54 967.98 140.94 969.5 141.94 971.34C142.94 973.18 143.44 975.36 143.44 977.88H135.4C135.4 976.56 135.1 975.4 134.5 974.4C133.94 973.36 133.14 972.5 132.1 971.82C131.1 971.1 129.94 970.58 128.62 970.26C127.3 969.9 125.9 969.72 124.42 969.72C122.22 969.72 120.28 970.02 118.6 970.62C116.96 971.18 115.58 972.06 114.46 973.26C113.38 974.42 112.56 975.88 112 977.64C111.48 979.4 111.22 981.46 111.22 983.82V985.08C111.22 988.32 111.68 990.98 112.6 993.06C113.52 995.14 114.9 996.68 116.74 997.68C118.62 998.64 120.94 999.12 123.7 999.12C126.06 999.12 128.12 998.76 129.88 998.04C131.68 997.32 133.08 996.28 134.08 994.92C135.12 993.52 135.64 991.82 135.64 989.82V989.4H122.5V982.92H143.44V1005H137.86L137.2 1000.44C136 1001.64 134.72 1002.64 133.36 1003.44C132 1004.2 130.5 1004.76 128.86 1005.12C127.22 1005.52 125.36 1005.72 123.28 1005.72ZM151.537 1005V961.62H158.857V1005H151.537ZM180.694 1005.72C177.254 1005.72 174.374 1005.14 172.054 1003.98C169.734 1002.78 167.994 1000.96 166.834 998.52C165.674 996.08 165.094 992.98 165.094 989.22C165.094 985.42 165.674 982.32 166.834 979.92C167.994 977.48 169.734 975.68 172.054 974.52C174.374 973.32 177.254 972.72 180.694 972.72C184.174 972.72 187.054 973.32 189.334 974.52C191.654 975.68 193.394 977.48 194.554 979.92C195.714 982.32 196.294 985.42 196.294 989.22C196.294 992.98 195.714 996.08 194.554 998.52C193.394 1000.96 191.654 1002.78 189.334 1003.98C187.054 1005.14 184.174 1005.72 180.694 1005.72ZM180.694 999.72C182.614 999.72 184.154 999.36 185.314 998.64C186.514 997.88 187.374 996.76 187.894 995.28C188.454 993.76 188.734 991.88 188.734 989.64V988.8C188.734 986.56 188.454 984.7 187.894 983.22C187.374 981.7 186.514 980.58 185.314 979.86C184.154 979.1 182.614 978.72 180.694 978.72C178.774 978.72 177.214 979.1 176.014 979.86C174.854 980.58 173.994 981.7 173.434 983.22C172.914 984.7 172.654 986.56 172.654 988.8V989.64C172.654 991.88 172.914 993.76 173.434 995.28C173.994 996.76 174.854 997.88 176.014 998.64C177.214 999.36 178.774 999.72 180.694 999.72ZM219.253 1005.72C217.213 1005.72 215.353 1005.32 213.673 1004.52C211.993 1003.68 210.633 1002.44 209.593 1000.8H209.173L208.573 1005H202.513V961.62H209.833V977.1H210.193C210.833 976.14 211.613 975.34 212.533 974.7C213.453 974.02 214.513 973.52 215.713 973.2C216.913 972.88 218.233 972.72 219.673 972.72C222.033 972.72 224.113 973.3 225.913 974.46C227.753 975.62 229.193 977.42 230.233 979.86C231.273 982.26 231.793 985.36 231.793 989.16C231.793 993 231.273 996.14 230.233 998.58C229.233 1001.02 227.793 1002.82 225.913 1003.98C224.073 1005.14 221.853 1005.72 219.253 1005.72ZM216.973 999.42C218.773 999.42 220.193 999.08 221.233 998.4C222.313 997.68 223.073 996.6 223.513 995.16C223.993 993.72 224.233 991.9 224.233 989.7V988.86C224.233 986.62 223.993 984.78 223.513 983.34C223.073 981.86 222.313 980.78 221.233 980.1C220.193 979.38 218.773 979.02 216.973 979.02C215.733 979.02 214.653 979.24 213.733 979.68C212.853 980.12 212.113 980.76 211.513 981.6C210.953 982.44 210.533 983.48 210.253 984.72C209.973 985.96 209.833 987.36 209.833 988.92V989.7C209.833 991.78 210.073 993.54 210.553 994.98C211.073 996.42 211.853 997.52 212.893 998.28C213.973 999.04 215.333 999.42 216.973 999.42ZM246.121 1005.72C245.241 1005.72 244.221 1005.6 243.061 1005.36C241.941 1005.16 240.841 1004.76 239.761 1004.16C238.721 1003.56 237.861 1002.68 237.181 1001.52C236.501 1000.32 236.161 998.76 236.161 996.84C236.161 994.68 236.641 992.9 237.601 991.5C238.561 990.06 239.901 988.94 241.621 988.14C243.381 987.3 245.461 986.72 247.861 986.4C250.301 986.04 252.961 985.86 255.841 985.86V983.28C255.841 982.36 255.701 981.54 255.421 980.82C255.141 980.1 254.621 979.54 253.861 979.14C253.141 978.7 252.041 978.48 250.561 978.48C249.081 978.48 247.921 978.66 247.081 979.02C246.241 979.38 245.661 979.82 245.341 980.34C245.021 980.86 244.861 981.4 244.861 981.96V982.8H237.781C237.741 982.6 237.721 982.4 237.721 982.2C237.721 982 237.721 981.76 237.721 981.48C237.721 979.68 238.261 978.12 239.341 976.8C240.421 975.48 241.921 974.48 243.841 973.8C245.761 973.08 247.981 972.72 250.501 972.72C253.381 972.72 255.741 973.12 257.581 973.92C259.461 974.72 260.861 975.86 261.781 977.34C262.701 978.82 263.161 980.62 263.161 982.74V997.62C263.161 998.38 263.381 998.92 263.821 999.24C264.261 999.56 264.741 999.72 265.261 999.72H267.181V1004.76C266.781 1004.92 266.201 1005.1 265.441 1005.3C264.681 1005.54 263.741 1005.66 262.621 1005.66C261.581 1005.66 260.641 1005.48 259.801 1005.12C259.001 1004.8 258.321 1004.32 257.761 1003.68C257.201 1003.04 256.801 1002.28 256.561 1001.4H256.201C255.521 1002.24 254.701 1003 253.741 1003.68C252.821 1004.32 251.721 1004.82 250.441 1005.18C249.201 1005.54 247.761 1005.72 246.121 1005.72ZM248.341 999.72C249.541 999.72 250.601 999.54 251.521 999.18C252.481 998.82 253.261 998.32 253.861 997.68C254.501 997.04 254.981 996.26 255.301 995.34C255.661 994.42 255.841 993.42 255.841 992.34V990.9C253.641 990.9 251.601 991.04 249.721 991.32C247.881 991.6 246.401 992.12 245.281 992.88C244.201 993.64 243.661 994.72 243.661 996.12C243.661 996.84 243.821 997.48 244.141 998.04C244.501 998.56 245.021 998.98 245.701 999.3C246.421 999.58 247.301 999.72 248.341 999.72ZM271.361 1005V961.62H278.681V1005H271.361ZM299.15 1005V963.84H306.95V1005H299.15ZM315.423 1005V973.44H321.543L322.143 977.64H322.563C323.283 976.68 324.123 975.84 325.083 975.12C326.083 974.36 327.203 973.78 328.443 973.38C329.723 972.94 331.123 972.72 332.643 972.72C334.643 972.72 336.403 973.08 337.923 973.8C339.483 974.52 340.703 975.68 341.583 977.28C342.463 978.88 342.903 981.02 342.903 983.7V1005H335.523V985.02C335.523 983.9 335.383 982.98 335.103 982.26C334.863 981.5 334.483 980.9 333.963 980.46C333.483 979.98 332.883 979.64 332.163 979.44C331.443 979.24 330.643 979.14 329.763 979.14C328.443 979.14 327.243 979.46 326.163 980.1C325.123 980.74 324.283 981.62 323.643 982.74C323.043 983.86 322.743 985.16 322.743 986.64V1005H315.423ZM351.963 1005V979.44H347.403V973.44H351.963V969.42C351.963 968.02 352.183 966.7 352.623 965.46C353.103 964.18 353.923 963.14 355.083 962.34C356.243 961.54 357.863 961.14 359.943 961.14C360.543 961.14 361.143 961.18 361.743 961.26C362.383 961.34 362.983 961.46 363.543 961.62C364.103 961.74 364.583 961.88 364.983 962.04V967.14H361.982C361.103 967.14 360.423 967.38 359.943 967.86C359.503 968.3 359.283 968.96 359.283 969.84V973.44H364.983V979.44H359.283V1005H351.963ZM368.883 1005V961.62H376.203V1005H368.883ZM393.998 1005.72C390.958 1005.72 388.478 1004.9 386.558 1003.26C384.678 1001.58 383.738 998.74 383.738 994.74V973.44H391.058V993.42C391.058 994.54 391.178 995.48 391.418 996.24C391.698 996.96 392.078 997.56 392.558 998.04C393.078 998.48 393.698 998.8 394.418 999C395.138 999.2 395.938 999.3 396.818 999.3C398.138 999.3 399.318 998.98 400.358 998.34C401.438 997.7 402.278 996.82 402.878 995.7C403.518 994.54 403.838 993.24 403.838 991.8V973.44H411.158V1005H405.098L404.498 1000.8H404.078C403.358 1001.76 402.498 1002.62 401.498 1003.38C400.538 1004.1 399.418 1004.66 398.138 1005.06C396.898 1005.5 395.518 1005.72 393.998 1005.72ZM432.519 1005.72C429.159 1005.72 426.359 1005.14 424.119 1003.98C421.879 1002.78 420.199 1000.96 419.079 998.52C417.959 996.08 417.399 992.98 417.399 989.22C417.399 985.42 417.959 982.32 419.079 979.92C420.199 977.48 421.879 975.68 424.119 974.52C426.359 973.32 429.159 972.72 432.519 972.72C435.559 972.72 438.099 973.3 440.139 974.46C442.219 975.58 443.779 977.32 444.819 979.68C445.859 982.04 446.379 985.1 446.379 988.86V991.02H424.899C424.979 992.98 425.279 994.64 425.799 996C426.319 997.32 427.119 998.32 428.199 999C429.319 999.64 430.779 999.96 432.579 999.96C433.499 999.96 434.359 999.84 435.159 999.6C435.959 999.36 436.659 999 437.259 998.52C437.859 998 438.319 997.36 438.639 996.6C438.999 995.84 439.179 994.96 439.179 993.96H446.379C446.379 995.96 446.019 997.7 445.299 999.18C444.619 1000.66 443.639 1001.88 442.359 1002.84C441.119 1003.8 439.659 1004.52 437.979 1005C436.299 1005.48 434.479 1005.72 432.519 1005.72ZM425.019 985.86H438.759C438.759 984.54 438.599 983.42 438.279 982.5C437.999 981.58 437.579 980.82 437.019 980.22C436.499 979.62 435.859 979.2 435.099 978.96C434.339 978.68 433.479 978.54 432.519 978.54C430.959 978.54 429.639 978.8 428.559 979.32C427.519 979.84 426.719 980.64 426.159 981.72C425.599 982.8 425.219 984.18 425.019 985.86ZM452.591 1005V973.44H458.711L459.311 977.64H459.731C460.451 976.68 461.291 975.84 462.251 975.12C463.251 974.36 464.371 973.78 465.611 973.38C466.891 972.94 468.291 972.72 469.811 972.72C471.811 972.72 473.571 973.08 475.091 973.8C476.651 974.52 477.871 975.68 478.751 977.28C479.631 978.88 480.071 981.02 480.071 983.7V1005H472.691V985.02C472.691 983.9 472.551 982.98 472.271 982.26C472.031 981.5 471.651 980.9 471.131 980.46C470.651 979.98 470.051 979.64 469.331 979.44C468.611 979.24 467.811 979.14 466.931 979.14C465.611 979.14 464.411 979.46 463.331 980.1C462.291 980.74 461.451 981.62 460.811 982.74C460.211 983.86 459.911 985.16 459.911 986.64V1005H452.591ZM500.77 1005.72C497.49 1005.72 494.75 1005.14 492.55 1003.98C490.39 1002.78 488.77 1000.96 487.69 998.52C486.61 996.08 486.07 992.98 486.07 989.22C486.07 985.42 486.61 982.32 487.69 979.92C488.81 977.48 490.45 975.68 492.61 974.52C494.81 973.32 497.53 972.72 500.77 972.72C502.89 972.72 504.77 972.98 506.41 973.5C508.05 974.02 509.45 974.82 510.61 975.9C511.81 976.94 512.71 978.24 513.31 979.8C513.91 981.36 514.21 983.18 514.21 985.26H506.77C506.77 983.78 506.55 982.56 506.11 981.6C505.67 980.64 504.99 979.92 504.07 979.44C503.19 978.92 502.05 978.66 500.65 978.66C499.01 978.66 497.67 979.04 496.63 979.8C495.59 980.56 494.81 981.7 494.29 983.22C493.81 984.7 493.57 986.58 493.57 988.86V989.64C493.57 991.88 493.81 993.76 494.29 995.28C494.81 996.8 495.61 997.94 496.69 998.7C497.77 999.42 499.19 999.78 500.95 999.78C502.31 999.78 503.43 999.54 504.31 999.06C505.23 998.54 505.93 997.78 506.41 996.78C506.89 995.78 507.13 994.58 507.13 993.18H514.21C514.21 995.14 513.91 996.9 513.31 998.46C512.71 1000.02 511.83 1001.34 510.67 1002.42C509.51 1003.5 508.09 1004.32 506.41 1004.88C504.77 1005.44 502.89 1005.72 500.77 1005.72ZM534.003 1005.72C530.643 1005.72 527.843 1005.14 525.603 1003.98C523.363 1002.78 521.683 1000.96 520.563 998.52C519.443 996.08 518.883 992.98 518.883 989.22C518.883 985.42 519.443 982.32 520.563 979.92C521.683 977.48 523.363 975.68 525.603 974.52C527.843 973.32 530.643 972.72 534.003 972.72C537.043 972.72 539.583 973.3 541.623 974.46C543.703 975.58 545.263 977.32 546.303 979.68C547.343 982.04 547.863 985.1 547.863 988.86V991.02H526.383C526.463 992.98 526.763 994.64 527.283 996C527.803 997.32 528.603 998.32 529.683 999C530.803 999.64 532.263 999.96 534.063 999.96C534.983 999.96 535.843 999.84 536.643 999.6C537.443 999.36 538.143 999 538.743 998.52C539.343 998 539.803 997.36 540.123 996.6C540.483 995.84 540.663 994.96 540.663 993.96H547.863C547.863 995.96 547.503 997.7 546.783 999.18C546.103 1000.66 545.123 1001.88 543.843 1002.84C542.603 1003.8 541.143 1004.52 539.463 1005C537.783 1005.48 535.963 1005.72 534.003 1005.72ZM526.503 985.86H540.243C540.243 984.54 540.083 983.42 539.763 982.5C539.483 981.58 539.063 980.82 538.503 980.22C537.983 979.62 537.343 979.2 536.583 978.96C535.823 978.68 534.963 978.54 534.003 978.54C532.443 978.54 531.123 978.8 530.043 979.32C529.003 979.84 528.203 980.64 527.643 981.72C527.083 982.8 526.703 984.18 526.503 985.86Z" fill="white"/>
<path d="M848.576 654.171C848.374 653.868 850.624 652.123 853.632 650.278C855.335 648.984 857.277 648.039 859.346 647.497C859.548 647.826 857.298 649.545 854.289 651.39C852.599 652.704 850.653 653.652 848.576 654.171Z" fill="white" fill-opacity="0.4"/>
<path d="M826.556 666.559C826.38 666.231 828.731 664.638 831.79 662.969C833.545 661.723 835.544 660.862 837.655 660.441C836.166 661.974 834.387 663.194 832.422 664.031C830.661 665.269 828.665 666.13 826.556 666.559Z" fill="white" fill-opacity="0.4"/>
<path d="M803.829 677.607C805.403 676.166 807.252 675.056 809.265 674.346C811.104 673.24 813.153 672.526 815.281 672.248C813.704 673.703 811.846 674.821 809.821 675.534C807.989 676.634 805.949 677.34 803.829 677.607Z" fill="white" fill-opacity="0.4"/>
<path d="M780.495 687.314C782.151 685.951 784.07 684.944 786.133 684.356C788.034 683.374 790.116 682.79 792.251 682.637C790.585 683.985 788.669 684.99 786.613 685.595C784.71 686.573 782.629 687.158 780.495 687.314Z" fill="white" fill-opacity="0.4"/>
<path d="M756.63 695.606C758.37 694.383 760.339 693.523 762.419 693.078C764.372 692.188 766.492 691.723 768.638 691.713C764.953 693.852 760.864 695.203 756.63 695.682V695.606Z" fill="white" fill-opacity="0.4"/>
<path d="M732.335 702.482C734.131 701.327 736.144 700.553 738.251 700.207C740.261 699.458 742.402 699.123 744.546 699.221C742.736 700.367 740.717 701.14 738.605 701.496C736.602 702.241 734.47 702.577 732.335 702.482Z" fill="white" fill-opacity="0.4"/>
<path d="M707.635 707.892C709.51 706.858 711.573 706.213 713.703 705.996C715.745 705.358 717.895 705.143 720.023 705.364C718.152 706.411 716.088 707.065 713.956 707.286C711.911 707.909 709.762 708.116 707.635 707.892Z" fill="white" fill-opacity="0.4"/>
<path d="M682.684 711.836C684.581 710.904 686.642 710.354 688.751 710.218C690.829 709.719 692.985 709.633 695.097 709.965C691.101 711.448 686.834 712.06 682.583 711.76L682.684 711.836Z" fill="white" fill-opacity="0.4"/>
<path d="M657.529 714.314C659.511 713.507 661.634 713.103 663.774 713.126C665.876 712.735 668.037 712.787 670.119 713.277C668.138 714.083 666.013 714.479 663.875 714.44C661.774 714.846 659.612 714.803 657.529 714.314Z" fill="white" fill-opacity="0.4"/>
<path d="M632.274 715.275C634.291 714.564 636.437 714.289 638.569 714.466C640.695 714.2 642.852 714.363 644.914 714.946C642.887 715.657 640.736 715.941 638.594 715.781C636.475 716.035 634.326 715.863 632.274 715.275Z" fill="white" fill-opacity="0.4"/>
<path d="M606.993 714.87C609.052 714.272 611.215 714.117 613.339 714.415C615.474 714.275 617.615 714.567 619.634 715.275C615.438 716.018 611.133 715.881 606.993 714.87Z" fill="white" fill-opacity="0.4"/>
<path d="M581.788 712.923C583.883 712.507 586.039 712.507 588.133 712.923C590.278 712.906 592.403 713.328 594.378 714.162C592.276 714.595 590.109 714.595 588.007 714.162C585.87 714.185 583.753 713.763 581.788 712.923Z" fill="white" fill-opacity="0.4"/>
<path d="M556.735 709.535C560.983 709.276 565.238 709.913 569.224 711.406C567.112 711.753 564.951 711.659 562.878 711.128C560.744 711.019 558.654 710.477 556.735 709.535Z" fill="white" fill-opacity="0.4"/>
<path d="M532.01 704.656C534.14 704.451 536.289 704.675 538.33 705.314C540.461 705.537 542.52 706.209 544.373 707.285C540.123 707.294 535.916 706.434 532.01 704.757V704.656Z" fill="white" fill-opacity="0.4"/>
<path d="M507.463 698.311C511.716 698.563 515.867 699.709 519.648 701.673C517.51 701.752 515.378 701.399 513.378 700.636C511.269 700.273 509.255 699.481 507.463 698.311Z" fill="white" fill-opacity="0.4"/>
<path d="M483.395 690.55C485.534 690.58 487.643 691.053 489.589 691.941C491.672 692.444 493.638 693.346 495.378 694.595C493.24 694.564 491.131 694.091 489.185 693.205C487.099 692.708 485.132 691.806 483.395 690.55Z" fill="white" fill-opacity="0.4"/>
<path d="M459.859 681.347C461.989 681.517 464.062 682.119 465.952 683.117C468.011 683.72 469.922 684.744 471.564 686.125C467.37 685.372 463.382 683.744 459.859 681.347Z" fill="white" fill-opacity="0.4"/>
<path d="M436.904 670.78C441.038 671.8 444.919 673.659 448.305 676.241C446.186 675.941 444.149 675.219 442.314 674.117C439.154 672.601 436.727 671.109 436.904 670.78Z" fill="white" fill-opacity="0.4"/>
<path d="M414.607 658.874C416.702 659.318 418.688 660.178 420.446 661.402C422.411 662.239 424.183 663.469 425.654 665.017C423.554 664.586 421.566 663.725 419.814 662.489C416.755 660.82 414.43 659.202 414.607 658.874Z" fill="white" fill-opacity="0.4"/>
<path d="M392.966 645.677C395.036 646.222 396.972 647.185 398.654 648.508C401.612 650.379 403.837 652.123 403.71 652.452C401.634 651.884 399.698 650.895 398.022 649.545C395.09 647.75 392.966 645.98 392.966 645.677Z" fill="white" fill-opacity="0.4"/>
<path d="M372.312 631.241C374.33 631.912 376.195 632.977 377.798 634.376C380.629 636.398 382.854 638.295 382.551 638.598C380.515 637.936 378.639 636.86 377.039 635.438C374.208 633.415 372.084 631.545 372.312 631.241Z" fill="white" fill-opacity="0.4"/>
<path d="M352.517 615.617C354.516 616.388 356.333 617.568 357.851 619.081C360.556 621.28 362.553 623.303 362.351 623.581C360.355 622.803 358.539 621.624 357.017 620.117C354.236 617.918 352.213 615.895 352.517 615.617Z" fill="white" fill-opacity="0.4"/>
<path d="M333.531 598.984C335.451 599.888 337.171 601.169 338.587 602.751C341.115 605.102 343.036 607.225 342.809 607.503C342.581 607.782 340.281 606.088 337.753 603.737C335.225 601.386 333.303 599.11 333.531 598.984Z" fill="white" fill-opacity="0.4"/>
<path d="M315.657 581.008C317.53 582.039 319.186 583.421 320.537 585.078C323.065 587.607 324.733 589.806 324.455 590.135C324.177 590.463 321.927 588.592 319.576 586.09C317.225 583.587 315.379 581.286 315.657 581.008Z" fill="white" fill-opacity="0.4"/>
<path d="M298.821 562.175C299.124 561.922 301.197 563.869 303.472 566.498C305.008 567.985 306.244 569.753 307.113 571.706C306.835 571.959 304.762 570.012 302.461 567.383C300.161 564.754 298.543 562.402 298.821 562.175Z" fill="white" fill-opacity="0.4"/>
<path d="M283.146 542.354C283.45 542.152 285.396 544.2 287.52 546.98C288.984 548.541 290.119 550.381 290.857 552.391C290.554 552.593 288.607 550.545 286.483 547.764C284.36 544.983 282.843 542.582 283.146 542.354Z" fill="white" fill-opacity="0.4"/>
<path d="M268.661 521.674C268.964 521.471 270.784 523.646 272.731 526.528C274.109 528.162 275.133 530.064 275.739 532.115C275.461 532.342 273.616 530.168 271.644 527.261C270.279 525.621 269.264 523.72 268.661 521.674Z" fill="white" fill-opacity="0.4"/>
<path d="M255.388 500.16C255.717 499.983 257.411 502.258 259.206 505.216C260.426 506.948 261.285 508.909 261.734 510.98C261.43 511.157 259.736 508.881 257.942 505.924C256.708 504.195 255.839 502.234 255.388 500.16Z" fill="white" fill-opacity="0.4"/>
<path d="M243.431 477.939C243.759 477.762 245.327 480.139 246.919 483.223C248.084 485.019 248.875 487.031 249.245 489.139C248.917 489.316 247.349 486.939 245.756 483.83C244.581 482.049 243.789 480.043 243.431 477.939Z" fill="white" fill-opacity="0.4"/>
<path d="M232.787 455.009C235.251 458.461 236.973 462.386 237.843 466.537C237.514 466.714 236.073 464.237 234.658 461.051C233.636 459.183 233 457.128 232.787 455.009Z" fill="white" fill-opacity="0.4"/>
<path d="M223.585 431.499C224.878 433.193 225.823 435.126 226.366 437.187C227.314 439.105 227.864 441.194 227.984 443.33C226.66 441.648 225.696 439.712 225.152 437.642C224.208 435.725 223.674 433.633 223.585 431.499Z" fill="white" fill-opacity="0.4"/>
<path d="M215.672 407.482C216.899 409.239 217.758 411.225 218.2 413.322C219.04 415.295 219.462 417.421 219.439 419.566C218.217 417.806 217.358 415.821 216.91 413.726C216.072 411.752 215.65 409.626 215.672 407.482Z" fill="white" fill-opacity="0.4"/>
<path d="M209.251 383.061C210.388 384.874 211.129 386.907 211.425 389.027C212.141 391.044 212.433 393.187 212.284 395.322C211.164 393.502 210.433 391.471 210.135 389.355C209.42 387.338 209.12 385.197 209.251 383.061Z" fill="white" fill-opacity="0.4"/>
<path d="M204.296 358.259C205.31 360.153 205.921 362.236 206.091 364.377C206.683 366.428 206.855 368.578 206.596 370.697C205.587 368.811 204.976 366.737 204.801 364.605C204.209 362.545 204.037 360.387 204.296 358.259Z" fill="white" fill-opacity="0.4"/>
<path d="M200.832 333.232C201.737 335.174 202.228 337.284 202.273 339.426C202.7 341.519 202.7 343.678 202.273 345.771C200.862 341.716 200.328 337.408 200.706 333.131L200.832 333.232Z" fill="white" fill-opacity="0.4"/>
<path d="M198.81 308.052C199.578 310.041 199.939 312.165 199.872 314.296C200.23 316.414 200.144 318.584 199.619 320.667C198.849 318.669 198.488 316.537 198.557 314.397C198.21 312.287 198.296 310.128 198.81 308.052Z" fill="white" fill-opacity="0.4"/>
<path d="M198.304 282.771C198.946 284.813 199.178 286.961 198.987 289.092C199.225 291.216 199.027 293.367 198.405 295.412C197.746 293.374 197.497 291.226 197.672 289.092C197.434 286.964 197.65 284.81 198.304 282.771Z" fill="white" fill-opacity="0.4"/>
<path d="M199.189 257.516C199.722 259.587 199.834 261.745 199.517 263.861C199.626 265.997 199.29 268.131 198.531 270.131C198 268.059 197.888 265.901 198.203 263.785C198.086 261.649 198.422 259.513 199.189 257.516Z" fill="white" fill-opacity="0.4"/>
<path d="M201.565 232.412C202.013 234.503 202.013 236.666 201.565 238.757C201.537 240.899 201.081 243.013 200.226 244.976C199.79 240.714 200.255 236.407 201.591 232.336L201.565 232.412Z" fill="white" fill-opacity="0.4"/>
<path d="M205.433 207.359C205.743 209.48 205.605 211.641 205.029 213.705C204.88 215.818 204.313 217.88 203.36 219.772C203.05 217.652 203.188 215.49 203.765 213.427C203.908 211.313 204.475 209.249 205.433 207.359Z" fill="white" fill-opacity="0.4"/>
<path d="M210.793 182.633C210.712 186.9 209.738 191.102 207.936 194.97C207.768 192.832 208.035 190.682 208.72 188.65C208.991 186.524 209.697 184.476 210.793 182.633Z" fill="white" fill-opacity="0.4"/>
<path d="M217.568 158.288C217.216 162.533 216.003 166.662 214.003 170.423C213.945 168.285 214.332 166.158 215.141 164.179C215.548 162.073 216.374 160.07 217.568 158.288Z" fill="white" fill-opacity="0.4"/>
<path d="M225.784 134.399C225.715 136.538 225.198 138.64 224.267 140.567C223.733 142.634 222.797 144.576 221.512 146.281C221.581 144.141 222.098 142.04 223.029 140.112C223.556 138.043 224.493 136.1 225.784 134.399Z" fill="white" fill-opacity="0.4"/>
<path d="M235.416 111.065C235.208 113.193 234.572 115.257 233.545 117.132C232.884 119.172 231.827 121.062 230.436 122.694C230.646 120.563 231.291 118.498 232.332 116.627C232.963 114.579 234.013 112.685 235.416 111.065Z" fill="white" fill-opacity="0.4"/>
<path d="M246.338 88.3113C245.245 92.4266 243.317 96.2732 240.675 99.6118C241.007 97.4975 241.773 95.4749 242.925 93.6708C244.568 90.4854 246.085 88.0838 246.338 88.3113Z" fill="white" fill-opacity="0.4"/>
<path d="M258.725 66.1916C258.298 68.2774 257.437 70.2499 256.197 71.9809C254.453 74.9893 252.784 77.3151 252.455 77.037C252.909 74.9521 253.768 72.9766 254.983 71.2225C256.753 68.2899 258.422 65.9893 258.725 66.1916Z" fill="white" fill-opacity="0.4"/>
<path d="M272.326 44.8796C271.743 46.9391 270.746 48.8576 269.394 50.5172C267.473 53.4245 265.678 55.5734 265.374 55.4217C265.968 53.3666 266.965 51.4502 268.307 49.784C270.228 46.8768 272.023 44.6774 272.326 44.8796Z" fill="white" fill-opacity="0.4"/>
<path d="M287.141 24.4021C286.454 26.428 285.352 28.288 283.905 29.8628C281.806 32.6436 279.885 34.7419 279.582 34.5397C279.278 34.3374 280.745 32.0116 282.843 29.0791C284.941 26.1465 286.787 24.1746 287.141 24.4021Z" fill="white" fill-opacity="0.4"/>
<path d="M303.144 4.88454C303.422 5.13735 301.804 7.41262 299.579 10.1429C297.354 12.8733 295.281 14.7946 295.003 14.5671C294.725 14.3396 296.318 12.039 298.568 9.30867C300.818 6.57835 302.866 4.60645 303.144 4.88454Z" fill="white" fill-opacity="0.4"/>
<path d="M979.277 353.406C976.749 344.154 977.204 334.446 975.991 324.966C975.334 319.909 973.792 314.322 969.519 311.491C966.688 309.62 963.072 309.292 959.988 307.851C948.89 302.794 948.081 286.058 937.842 279.46C934.495 277.629 930.889 276.316 927.148 275.567C912.713 271.699 898.253 264.443 890.694 251.576C888.166 247.404 886.548 242.677 883.261 239.112C879.975 235.548 874.286 233.373 870.166 235.952C872.39 242.601 874.514 249.224 876.663 255.797C878.66 261.789 880.657 267.957 884.727 272.71C888.798 277.463 895.446 280.724 901.463 278.929C903.366 277.986 905.489 277.575 907.607 277.741C909.067 278.277 910.281 279.329 911.019 280.699C917.744 290.811 913.017 305.019 903.89 312.957C894.764 320.895 882.629 323.853 871.025 326.659C866.903 328.016 862.49 328.226 858.258 327.266C850.801 324.738 847.919 315.789 846.756 307.952C844.228 290.634 844.228 272.255 836.087 256.758C833.433 251.879 829.919 247.253 828.68 241.817C827.391 235.952 828.832 229.505 826.152 224.121C823.472 218.736 816.495 214.438 816.899 208.168C817.202 203.795 821.349 200.584 825.596 199.194C829.843 197.803 834.368 197.93 838.716 196.843C840.41 196.388 842.382 195.478 842.711 193.758C843.065 191.23 839.627 189.587 839.045 187.034C838.464 184.48 841.573 181.978 843.166 179.449C846.604 173.736 841.169 166.683 835.379 163.32C829.59 159.958 822.562 157.101 820.565 150.68C819.935 147.673 819.697 144.597 819.857 141.528C819.528 133.818 815.054 125.778 807.672 123.427C800.29 121.076 790.835 126.638 790.986 134.374C790.986 138.621 793.742 142.312 794.88 146.382C796.017 150.452 794.728 156.115 790.582 156.773C783.781 157.809 779.256 145.017 773.214 148.304C774.326 156.267 775.413 164.205 776.526 172.194C767.349 175.303 758.248 165.95 755.897 156.495C753.545 147.04 754.86 136.927 751.751 127.75C748.641 118.573 737.871 110.433 729.554 115.439C727.607 126.41 741.512 132.983 746.669 142.818C750.385 149.947 748.186 160.312 740.728 163.422C733.27 166.531 723.487 157.835 727.178 150.781C728.492 148.253 730.97 146.458 731.627 143.703C732.385 140.264 729.857 137.054 727.532 134.45C723.891 130.304 720.225 126.234 716.585 122.163C714.385 119.361 711.642 117.03 708.52 115.312C700.329 111.596 690.824 117.284 685.161 124.262C679.498 131.239 675.681 139.91 668.501 145.396C658.161 153.385 641.046 151.489 634.018 140.517C626.99 129.545 634.018 111.975 646.886 110.18C651.79 109.548 657.706 110.534 660.79 106.742C666.2 99.9921 655.153 88.7927 660.512 81.9669C664.633 76.7338 672.925 80.6017 679.523 79.5905C686.122 78.5793 690.495 72.7647 695.021 67.8602C699.546 62.9558 705.992 58.3799 712.237 60.731C711.915 56.8627 712.714 52.9837 714.537 49.5569C716.711 46.321 721.768 44.7789 724.523 47.4586C720.63 52.2114 723.36 60.099 728.492 63.3855C733.624 66.672 740.172 67.1018 746.34 67.3041C752.509 67.5063 760.447 66.3181 761.838 60.3013C762.293 58.3547 761.838 56.13 762.874 54.3856C766.59 47.5345 778.523 59.4417 784.514 54.3856C787.927 51.8575 785.425 45.9165 781.43 44.2733C777.436 42.63 772.986 43.5401 768.79 43.0598C764.593 42.5795 759.739 39.6722 760.169 35.4756C760.599 31.279 765.655 29.0037 766.742 24.984C768.562 18.1582 757.034 14.6442 752.079 19.7004C747.124 24.7565 747.478 32.6947 747.706 39.748C747.933 46.8013 747.478 54.9165 741.689 59.1131C739.034 62.0962 733.65 59.5429 732.31 55.8013C730.97 52.0598 731.93 47.9137 732.183 43.9446C732.436 39.9755 731.349 35.2227 727.658 33.6301C725.13 32.4924 722.071 33.3772 719.29 33.352C708.318 33.0992 702.832 18.1835 707.737 8.27345C712.641 -1.63662 723.31 -6.89501 733.574 -10.6871C741.158 -13.5186 750.183 -15.7433 756.503 -10.9905C759.461 -8.71522 761.256 -5.30232 764.088 -2.97649C769.144 1.04315 775.995 0.840919 782.239 1.85215C792.103 3.6255 801.051 8.7516 807.57 16.3633C810.099 19.2959 811.969 23.9475 809.365 26.6273C806.761 29.3071 799.683 29.1553 800.315 33.1497C802.065 33.9196 803.958 34.3112 805.869 34.2988C807.781 34.2865 809.669 33.8705 811.408 33.0782C813.148 32.2858 814.701 31.135 815.965 29.7009C817.229 28.2669 818.177 26.582 818.745 24.7565C820.419 25.8399 821.779 27.3444 822.689 29.1193C823.598 30.8941 824.025 32.8769 823.927 34.8688C826.239 33.2636 828.861 32.1586 831.624 31.6245C834.388 31.0904 837.232 31.1391 839.976 31.7672C842.719 32.3954 845.302 33.5894 847.557 35.2727C849.813 36.956 851.693 39.0916 853.076 41.5429C854.084 44.377 855.582 47.0124 857.5 49.3294C859.75 51.3013 864.199 51.1243 864.933 48.2423C865.146 47.3192 865.146 46.3593 864.933 45.4362C864.048 41.012 863.112 36.6385 862.227 32.2649C868.421 30.0149 874.539 35.8295 877.699 41.5935C889.404 63.0822 901.438 52.9446 921.41 59.0625C934.935 63.158 939.738 72.9164 945.983 84.7478C965.146 121.177 992.828 152.778 1009.59 190.371C1011.27 194.298 1012.88 198.258 1014.39 202.253C1014.16 201.267 1013.99 200.306 1013.74 199.32C1008.49 175.723 1001.02 152.674 991.438 130.481C989.398 125.778 987.291 121.11 985.117 116.475C983.752 113.618 982.336 110.711 980.921 107.905C979.101 104.214 977.154 100.649 975.207 97.0848C973.665 94.2028 972.098 91.3713 970.48 88.6157C969.367 86.6691 968.205 84.7478 967.016 82.8012C965.828 80.8546 964.488 78.4529 963.022 76.2787L958.699 69.5035C958.265 68.7792 957.792 68.0787 957.283 67.4052C955.792 65.054 954.174 62.7283 952.556 60.4024C952.453 60.1321 952.289 59.8896 952.075 59.6945C951.671 59.0625 951.191 58.4305 950.71 57.7985C949.421 55.8266 947.98 53.9052 946.615 52.0092C944.339 48.8996 942.014 45.7901 939.587 42.7817C937.64 40.2536 935.592 37.7256 933.494 35.1975C931.396 32.6694 929.828 30.748 927.932 28.5739C926.036 26.3997 924.241 24.3015 922.345 22.2032C920.045 19.6751 917.719 17.147 915.292 14.4672C908.643 7.36333 901.741 0.537544 894.562 -5.93433C892.792 -7.57758 891.048 -9.17026 889.253 -10.7377C887.458 -12.3051 885.612 -13.9231 883.792 -15.4652C881.972 -17.0073 880.152 -18.5747 878.255 -20.0663C876.359 -21.5578 874.539 -23.1253 872.668 -24.5916C870.798 -26.0578 869.66 -26.9932 868.118 -28.1056C867.365 -28.7434 866.58 -29.3425 865.767 -29.9005C862.531 -32.4286 859.219 -34.9567 855.882 -37.1561C854.213 -38.3443 852.545 -39.5325 850.826 -40.6701C848.702 -42.187 846.503 -43.628 844.303 -45.0184C843.999 -45.2719 843.669 -45.4922 843.318 -45.6757C841.346 -46.965 839.399 -48.2038 837.351 -49.5184C834.52 -51.2375 831.663 -52.9819 828.806 -54.5745C825.545 -56.4959 822.284 -58.4172 818.922 -60.2374C815.559 -62.0576 811.539 -64.2824 807.773 -66.1531C804.006 -68.0239 800.188 -69.9705 796.32 -71.7907C792.453 -73.611 788.585 -75.3047 784.666 -77.0238C776.93 -80.3609 769.017 -83.4705 761.029 -86.3272L760.599 -86.5041C757.54 -87.5912 754.456 -88.653 751.371 -89.6137C751.181 -89.7184 750.977 -89.795 750.765 -89.8412C749.45 -90.271 748.06 -90.726 746.669 -91.1305C740.905 -92.976 735.09 -94.6193 729.175 -96.1867C728.468 -96.4079 727.751 -96.5936 727.026 -96.7428C725.332 -97.2485 723.613 -97.6277 721.843 -98.0575C717.95 -99.0181 714.006 -99.903 710.037 -100.712C706.068 -101.521 701.72 -102.431 697.549 -103.24C693.377 -104.049 688.776 -104.757 684.377 -105.389C672.731 -107.074 661.127 -108.229 649.566 -108.852C646.81 -109.055 644.13 -109.181 641.4 -109.257C638.67 -109.333 635.737 -109.459 632.906 -109.484C630.074 -109.51 627.217 -109.484 624.437 -109.484C621.656 -109.484 618.774 -109.484 615.917 -109.333C613.515 -109.333 611.038 -109.333 608.611 -109.055C602.611 -108.768 596.67 -108.364 590.788 -107.841C588.032 -107.614 585.277 -107.31 582.496 -106.956C579.715 -106.602 576.959 -106.299 574.254 -105.92C569.678 -105.313 565.204 -104.58 560.729 -103.821L549.808 -101.799H549.555C545.839 -101.066 542.249 -100.257 538.583 -99.3973H538.002C534.639 -98.6136 531.302 -97.7794 528.016 -96.8693C523.87 -95.8327 519.774 -94.6445 515.755 -93.4563C512.316 -92.4451 508.929 -91.4086 505.642 -90.2962C502.356 -89.1839 498.463 -87.9199 494.923 -86.6558L494.544 -86.5294C491.131 -85.316 487.718 -84.0013 484.432 -82.6867C481.145 -81.3721 477.53 -79.9564 474.067 -78.4396C470.831 -77.0744 467.671 -75.7092 464.485 -74.2682C463.272 -73.7373 462.109 -73.1559 460.87 -72.5744C457.508 -71.0323 454.221 -69.4143 450.758 -67.7458C446.662 -65.7486 442.693 -63.5998 438.724 -61.4509C435.21 -59.5549 431.772 -57.5829 428.384 -55.611C408.748 -44.1963 390.132 -31.1115 372.741 -16.5017C366.623 -11.4456 360.809 -6.18713 355.045 -0.827606C350.216 3.79877 345.489 8.4757 340.913 13.3802C341.924 13.3802 342.935 13.3802 343.921 13.3802C349.559 13.7594 355.424 14.7959 360.809 13.1021C365.865 11.4841 369.657 7.79312 374.309 5.51785C386.191 -0.600098 404.064 0.461685 408.842 -11.9512C410.46 -16.1478 409.98 -21.027 412.179 -24.9455C416.325 -32.2516 426.842 -31.8724 435.134 -30.5325C438.674 -30.0269 442.718 -28.9398 443.907 -25.4764C444.187 -24.2554 444.206 -22.989 443.962 -21.7602C443.718 -20.5314 443.217 -19.3682 442.491 -18.3472C435.211 -4.5395 423.401 6.34223 409.044 12.4701C397.314 17.5262 382.525 20.5346 377.772 32.366C378.657 36.7396 386.266 37.4222 386.241 41.9474C386.241 45.4868 381.463 46.6244 379.39 49.5317C376.382 53.703 380.983 59.9979 386.165 60.5035C391.348 61.0091 396.151 57.9754 400.449 54.967C413.241 46.1188 426.69 36.5626 432.935 22.279C435.463 16.3886 437.233 9.28469 442.769 5.92235C444.455 5.0663 446.316 4.61262 448.207 4.5969C450.098 4.58119 451.966 5.00387 453.666 5.83178C455.366 6.65969 456.851 7.87031 458.005 9.3686C459.158 10.8669 459.948 12.6121 460.314 14.4672C465.623 12.4448 473.536 11.5094 475.331 16.9953C475.622 18.97 475.698 20.9704 475.558 22.9616C476.013 31.1273 486.328 36.2845 486.302 44.4502C486.302 53.8547 473.662 56.9136 464.283 57.0906C455.738 57.0906 447.193 57.2676 438.623 57.4193C434.896 57.1521 431.159 57.785 427.727 59.2648C426.03 60.0652 424.659 61.4221 423.84 63.11C423.022 64.7978 422.805 66.7149 423.227 68.5428C424.238 70.3777 425.478 72.0768 426.918 73.5989C432.859 81.5371 425.072 95.0117 415.238 93.8236C411.876 93.4444 408.766 91.7505 405.455 91.1438C395.595 89.273 386.469 96.8573 380.477 104.922C374.486 112.986 369.531 122.441 360.758 127.245C346.601 135.006 324.91 129.596 316.593 143.45C313.256 149.037 313.584 155.913 313.66 162.436C313.736 168.958 313.129 176.037 308.604 180.764C304.079 185.492 294.497 185.163 292.601 178.944C292.057 176.158 292.347 173.273 293.436 170.652C296.233 161.702 299.006 152.745 301.753 143.778C303.801 137.104 305.823 129.621 302.612 123.554C298.087 114.933 285.346 113.846 277.129 119.054C268.913 124.262 264.489 133.616 261.127 142.666C258.599 149.391 255.464 158.947 250.484 166.304C247.955 173.888 245.882 181.472 243.936 189.208C241.989 196.944 240.27 205.084 238.88 213.199C240.126 212.43 241.325 211.585 242.47 210.671C246.944 207.208 257.284 191.306 263.149 200.685C263.855 201.911 264.139 203.334 263.956 204.737C263.773 206.139 263.135 207.443 262.138 208.447C259.61 210.975 255.135 210.975 253.037 213.705C250.509 217.017 252.658 221.896 255.565 224.727C258.472 227.559 262.441 229.784 264.312 233.449C267.877 240.604 262.138 249.831 265.576 257.112C268.534 263.356 276.523 264.898 283.273 266.618L285.573 267.351C289.466 253.977 297.455 243.814 316.643 242.298C343.138 240.174 373.778 266.314 385.432 287.803C398.401 311.769 401.612 343.421 424.693 357.881C441.227 368.196 466.735 369.03 472.727 387.561C478.162 404.17 462.26 419.642 457.735 436.504C454.803 447.678 456.876 459.485 456.117 470.937C455.359 482.389 449.999 495.257 438.952 498.518C432.834 500.288 425.629 498.923 420.345 502.588C410.966 509.212 415.289 526.302 406.036 532.925C402.724 535.226 398.452 535.63 394.761 536.92C374.865 543.594 371.427 570.922 377.292 591.071C377.519 591.804 377.747 592.461 377.949 593.195C433.405 638.27 500.038 667.476 570.766 677.708C634.822 687.068 700.199 680.486 761.104 658.545C773.918 653.917 786.483 648.626 798.747 642.694C817.655 633.623 835.798 623.038 853 611.043C864.905 602.788 876.333 593.867 887.23 584.321C894.814 577.697 902.222 570.72 909.351 563.54C912.966 559.824 916.556 556.108 919.969 552.214C945.428 524.379 966.717 493 983.171 459.055C993.235 438.43 1001.44 416.949 1007.69 394.867C1010.22 386.221 1012.37 377.448 1014.29 368.55C1011.94 370.4 1009.26 371.769 1006.38 372.58C1003.51 373.392 1000.5 373.628 997.53 373.277C988.404 371.609 981.805 362.609 979.277 353.406Z" fill="#DF2A31"/>
<path d="M272.326 339.704C272.705 328.302 278.039 317.634 279.91 306.333C281.174 298.521 281.806 290.204 282.817 282.316C276.155 281.052 269.629 279.155 263.326 276.654C261.956 276.277 260.759 275.437 259.938 274.277C259.454 272.904 259.383 271.418 259.736 270.005C260.52 261.131 252.86 254.078 245.882 248.567C242.413 245.657 238.651 243.115 234.658 240.982C234.658 241.918 234.405 242.777 234.329 243.713C229.684 286.389 232.032 329.537 241.281 371.456C245.407 390.104 250.925 408.417 257.789 426.24C260.596 433.824 263.806 441.535 267.219 448.993C271.441 458.271 275.941 467.397 280.921 476.27C285.497 484.79 290.477 493.158 295.837 501.273C303.126 512.508 310.991 523.36 319.399 533.784C326.848 543.088 334.727 552.029 343.036 560.607C329.966 500.136 318.312 438.653 288.809 384.552C280.972 370.445 271.82 355.833 272.326 339.704Z" fill="white" fill-opacity="0.4"/>
<path d="M237.236 222.3C236.857 224.651 236.427 226.977 236.073 229.328C236.427 227.028 236.857 224.828 237.236 222.3Z" fill="#263238"/>
<g opacity="0.6">
<path d="M362.629 579.694C365.612 582.399 368.621 585.053 371.705 587.657C368.57 585.053 365.562 582.399 362.629 579.694Z" fill="#263238"/>
</g>
<g opacity="0.6">
<path d="M238.753 213.148C238.602 213.882 238.425 214.539 238.323 215.297C238.475 214.539 238.753 213.882 238.753 213.148Z" fill="#263238"/>
</g>
<path d="M285.649 267.249L283.349 266.516C276.573 264.797 268.585 263.255 265.652 257.011C262.214 249.73 267.953 240.502 264.388 233.348C262.517 229.606 258.649 227.533 255.641 224.626C252.633 221.719 250.433 216.915 253.113 213.604C255.211 210.823 259.635 210.823 262.214 208.345C263.214 207.343 263.854 206.037 264.032 204.633C264.21 203.228 263.918 201.804 263.2 200.584C257.36 191.205 247.02 207.106 242.546 210.57C241.401 211.484 240.202 212.328 238.956 213.098C238.804 213.831 238.627 214.488 238.526 215.247C238.096 217.547 237.767 219.924 237.388 222.3C237.009 224.677 236.579 226.977 236.225 229.328C235.947 231.25 235.745 233.171 235.492 235.092C235.239 237.014 234.961 238.935 234.759 240.831C238.753 242.964 242.515 245.506 245.984 248.415C252.961 253.926 260.621 261.056 259.838 269.853C259.485 271.266 259.555 272.752 260.04 274.126C260.86 275.286 262.057 276.126 263.427 276.502C269.73 279.004 276.257 280.9 282.919 282.165" fill="white" fill-opacity="0.4"/>
<path d="M282.767 282.316C281.756 290.204 281.124 298.521 279.86 306.333C278.039 317.633 272.705 328.302 272.275 339.703C271.77 355.832 280.921 370.445 288.683 384.602C318.185 438.703 329.84 500.186 342.91 560.657C346.424 564.399 350.014 567.963 353.68 571.452C356.562 574.267 359.486 577.014 362.452 579.694C365.435 582.399 368.443 585.053 371.528 587.657C373.651 589.477 375.8 591.247 378.025 593.017C377.823 592.284 377.595 591.626 377.368 590.893C371.502 570.668 374.84 543.416 394.837 536.742C398.629 535.452 402.8 535.048 406.112 532.747C415.466 526.124 411.042 509.034 420.421 502.41C425.704 498.745 432.909 500.11 439.027 498.34C450.075 495.079 455.333 482.287 456.193 470.759C457.053 459.231 454.878 447.501 457.811 436.326C462.336 419.464 478.238 403.992 472.803 387.383C466.685 368.852 441.176 368.018 424.769 357.703C401.688 343.293 398.477 311.591 385.508 287.625C373.854 266.212 343.213 240.072 316.719 242.12C297.531 243.636 289.542 253.799 285.649 267.173" fill="white" fill-opacity="0.4"/>
<path d="M277.18 118.927C285.396 113.719 298.138 114.806 302.663 123.427C305.874 129.595 303.851 137.078 301.803 143.651C299.039 152.601 296.267 161.558 293.486 170.525C292.397 173.146 292.107 176.031 292.652 178.817C294.548 185.036 304.256 185.314 308.654 180.637C313.053 175.96 313.711 168.78 313.711 162.308C313.711 155.837 313.306 148.91 316.643 143.323C324.96 129.469 346.651 134.879 360.809 127.118C369.581 122.314 374.561 112.859 380.528 104.795C386.494 96.7302 395.696 89.146 405.505 91.0167C408.817 91.6235 411.926 93.3173 415.289 93.6965C425.123 94.7836 432.985 81.3089 426.968 73.4719C425.529 71.9497 424.289 70.2507 423.277 68.4157C422.856 66.5879 423.072 64.6707 423.891 62.9828C424.709 61.295 426.081 59.9381 427.777 59.1377C431.209 57.658 434.946 57.025 438.673 57.2922C447.244 57.1405 455.788 57.0647 464.333 56.9635C473.788 56.9635 486.302 53.8034 486.353 44.3231C486.353 36.1575 476.064 31.0002 475.609 22.8345C475.748 20.8434 475.672 18.8429 475.381 16.8682C473.586 11.4076 465.673 12.343 460.364 14.3401C459.999 12.485 459.208 10.7398 458.055 9.24149C456.902 7.74319 455.417 6.53257 453.717 5.70466C452.017 4.87675 450.148 4.45407 448.257 4.46979C446.367 4.4855 444.505 4.93919 442.819 5.79524C437.283 9.15758 435.614 16.2615 432.985 22.1519C426.741 36.4355 413.291 45.9916 400.499 54.8399C396.202 57.7725 391.398 60.8567 386.216 60.3764C381.033 59.8961 376.432 53.5759 379.441 49.4046C381.514 46.5226 386.241 45.3849 386.292 41.8203C386.292 37.3962 378.707 36.6125 377.823 32.2389C382.575 20.4075 397.365 17.3485 409.095 12.3429C423.474 6.2184 435.304 -4.67379 442.592 -18.4996C443.318 -19.5206 443.819 -20.6838 444.063 -21.9126C444.307 -23.1413 444.288 -24.4079 444.008 -25.6288C442.845 -28.9658 438.775 -30.0529 435.235 -30.6849C426.943 -32.0248 416.426 -32.404 412.28 -25.0979C410.081 -21.1793 410.561 -16.3002 408.943 -12.1035C404.165 0.359869 386.191 -0.752476 374.41 5.36547C369.758 7.71658 365.89 11.4076 360.91 12.9497C355.525 14.6435 349.66 13.607 344.022 13.2278C343.036 13.2278 342.025 13.2278 341.014 13.2278C336.918 17.475 332.924 21.8485 329.056 26.2979C325.188 30.7474 321.472 35.2979 317.73 39.9243C300.267 61.8399 285.214 85.5721 272.832 110.71C268.433 119.533 264.413 128.559 260.697 137.786C256.981 147.014 253.618 156.418 250.584 165.999C255.641 158.643 258.725 149.087 261.228 142.362C264.565 133.488 269.09 124.135 277.18 118.927Z" fill="white" fill-opacity="0.4"/>
<path d="M1019.75 337.226C1020.54 331.589 1021.19 325.977 1021.67 320.364C1022.15 314.752 1022.56 309.165 1022.79 303.578C1023.01 299.052 1023.14 294.578 1023.17 290.078C1023.19 285.578 1023.17 280.623 1023.17 275.921C1022.85 261.875 1021.77 247.857 1019.93 233.929C1019.22 228.62 1018.41 223.311 1017.4 218.053C1016.39 212.795 1015.45 207.561 1014.32 202.328C1012.87 198.334 1011.27 194.373 1009.51 190.446C992.752 152.854 965.07 121.253 945.907 84.8233C939.663 72.9919 934.859 63.2335 921.334 59.138C901.362 53.0201 889.329 63.1577 877.624 41.669C874.464 35.905 868.346 30.0904 862.152 32.3404C863.037 36.714 863.972 41.0876 864.857 45.5117C865.071 46.4349 865.071 47.3946 864.857 48.3178C864.124 51.1998 859.674 51.3768 857.424 49.4049C855.525 47.0594 854.053 44.3981 853.076 41.5426C851.692 39.0986 849.815 36.9696 847.563 35.2912C845.311 33.6127 842.735 32.4216 839.998 31.7938C837.26 31.1659 834.422 31.115 831.664 31.6444C828.906 32.1738 826.288 33.2718 823.978 34.8685C824.076 32.8765 823.649 30.8938 822.74 29.1189C821.83 27.3441 820.47 25.8396 818.795 24.7562C818.227 26.5816 817.28 28.2665 816.016 29.7006C814.752 31.1346 813.199 32.2855 811.459 33.0778C809.719 33.8702 807.832 34.2862 805.92 34.2985C804.008 34.3108 802.115 33.9192 800.366 33.1494C799.734 29.2056 806.61 29.509 809.416 26.627C812.222 23.7449 810.023 19.2955 807.621 16.3629C801.082 8.79812 792.136 3.71798 782.29 1.9782C776.046 0.966971 769.119 1.16921 764.138 -2.85043C761.256 -5.17627 759.461 -8.58916 756.554 -10.8644C750.234 -15.7436 741.107 -13.3925 733.624 -10.5611C723.36 -6.66784 712.616 -1.46 707.787 8.3995C702.959 18.259 708.369 33.2252 719.341 33.478C722.122 33.478 725.155 32.6185 727.709 33.7561C731.4 35.3488 732.487 40.0763 732.234 44.0707C731.981 48.065 730.919 52.1858 732.36 55.9274C733.801 59.6689 739.085 62.2223 741.739 59.2391C747.529 55.1437 748.06 46.9527 747.756 39.8741C747.453 32.7954 747.225 24.8573 752.13 19.8264C757.034 14.7955 768.613 18.2843 766.793 25.1101C765.706 29.1297 760.624 31.4303 760.22 35.6016C759.815 39.7729 764.619 42.8066 768.84 43.1858C773.062 43.565 777.588 42.7561 781.481 44.3993C785.374 46.0426 787.978 51.8572 784.565 54.5116C778.574 59.5678 766.641 47.6858 762.925 54.5116C761.914 56.256 762.343 58.4807 761.888 60.4273C760.498 66.4442 752.56 67.5565 746.391 67.4301C740.223 67.3037 733.751 66.9245 728.543 63.5116C723.335 60.0987 720.681 52.3375 724.574 47.5847C721.818 44.9049 716.762 46.4471 714.588 49.683C712.765 53.1098 711.966 56.9888 712.287 60.8571C706.043 58.506 699.495 63.1071 695.071 67.9863C690.647 72.8655 686.097 78.7053 679.574 79.7166C673.052 80.7278 664.684 76.8598 660.563 82.0929C655.203 88.9187 666.251 100.118 660.841 106.868C657.757 110.66 651.841 109.674 646.937 110.306C633.968 112.025 626.99 129.621 634.069 140.643C641.147 151.666 658.212 153.511 668.552 145.522C675.731 140.036 679.574 131.416 685.212 124.388C690.849 117.36 700.38 111.747 708.571 115.438C711.693 117.156 714.436 119.487 716.636 122.289C720.276 126.36 723.942 130.43 727.582 134.576C729.908 137.104 732.436 140.39 731.678 143.829C731.02 146.584 728.543 148.43 727.228 150.907C723.537 158.036 733.372 166.708 740.779 163.548C748.186 160.388 750.436 150.073 746.72 142.944C741.664 133.11 727.658 126.537 729.605 115.565C737.922 110.509 748.717 118.624 751.801 127.876C754.886 137.129 753.571 147.242 755.947 156.621C758.324 166 767.399 175.43 776.576 172.32C775.464 164.331 774.377 156.393 773.265 148.43C779.307 145.143 783.832 157.935 790.632 156.899C794.779 156.241 796.093 150.604 794.93 146.508C793.767 142.413 791.163 138.747 791.037 134.5C790.885 126.764 800.29 121.228 807.722 123.553C815.155 125.879 819.579 133.944 819.908 141.654C819.748 144.723 819.986 147.799 820.616 150.806C822.613 157.152 829.717 160.034 835.43 163.446C841.143 166.859 846.655 173.862 843.217 179.576C841.674 182.104 838.514 184.202 839.096 187.16C839.677 190.118 843.115 191.281 842.761 193.885C842.433 195.604 840.461 196.413 838.767 196.969C834.419 198.056 829.894 197.955 825.646 199.32C821.399 200.685 817.253 203.921 816.95 208.295C816.545 214.564 823.472 218.609 826.203 224.247C828.933 229.884 827.416 236.078 828.731 241.943C829.969 247.379 833.483 252.056 836.138 256.884C844.379 272.381 844.202 290.76 846.806 308.078C847.969 315.915 850.851 324.864 858.309 327.392C862.541 328.352 866.954 328.142 871.076 326.785C882.781 323.979 894.992 320.946 903.941 313.083C912.89 305.221 917.795 290.836 911.07 280.825C910.332 279.455 909.118 278.403 907.657 277.867C905.54 277.701 903.417 278.112 901.514 279.055C895.497 280.85 888.874 277.69 884.778 272.836C880.683 267.982 878.711 261.915 876.714 255.923C874.565 249.35 872.441 242.727 870.216 236.078C874.337 233.55 879.975 235.648 883.312 239.238C886.649 242.828 888.242 247.53 890.744 251.702C898.329 264.57 912.764 271.926 927.199 275.693C930.94 276.443 934.546 277.755 937.893 279.586C948.132 286.185 948.941 302.819 960.039 307.977C963.123 309.418 966.738 309.746 969.57 311.617C973.842 314.448 975.384 319.985 976.042 325.092C977.255 334.572 976.75 344.28 979.328 353.533C981.907 362.785 988.454 371.735 997.859 373.226C1000.83 373.578 1003.83 373.341 1006.71 372.53C1009.59 371.719 1012.27 370.349 1014.62 368.499C1016.36 360.03 1017.91 351.51 1019.15 342.839C1019.37 340.842 1019.63 339.047 1019.75 337.226Z" fill="#C90800"/>
<path d="M777.276 402.744C794.669 391.595 805.287 362.295 787.085 352.511C780.209 348.82 771.537 349.755 764.737 345.913C755.838 340.856 752.981 329.708 750.959 319.722C745.65 293.497 740.332 267.281 735.007 241.073C731.796 225.273 726.158 206.691 710.687 202.191C701.914 199.663 692.636 202.647 683.51 203C652.086 204.138 611.333 122.633 580.845 169.099C579.555 155.093 556.802 156.99 547.98 168.012C539.157 179.034 535.339 194.759 523.053 201.484C513.623 206.54 501.109 205.2 492.994 212.253C487.28 217.309 485.41 225.071 483.589 232.478C480.353 246.551 477.109 260.632 473.856 274.722C471.328 286.073 468.8 298.233 472.921 309.104C477.042 319.975 491.224 327.66 500.856 321.112C505.28 318.104 507.733 312.947 511.525 309.18C514.657 306.178 518.593 304.148 522.855 303.336C527.118 302.524 531.524 302.964 535.541 304.604C542.215 307.435 547.044 313.376 551.165 319.368C584.814 368.008 590.249 431.159 583.524 489.912C582.311 500.682 580.718 511.679 583.221 522.221C586.153 534.558 594.521 545.403 595.609 558.044C596.443 567.751 592.878 577.788 595.609 587.116C600.665 604.333 625.364 608.605 640.507 598.998C655.65 589.392 663.032 571.417 668.316 554.251C673.6 537.086 678.024 518.858 689.982 505.485C697.414 497.193 707.425 491.151 713.164 481.62C721.178 468.272 719.181 450.803 726.816 437.227C736.827 419.176 759.756 413.867 777.276 402.744Z" fill="#C90800"/>
<path d="M342.96 560.657C346.474 564.399 350.064 567.963 353.73 571.452C356.612 574.267 359.536 577.014 362.502 579.694C365.486 582.399 368.494 585.053 371.578 587.657C373.702 589.477 375.851 591.247 378.075 593.017C377.873 592.283 377.646 591.626 377.418 590.893C371.553 570.668 374.89 543.416 394.887 536.742C398.679 535.452 402.851 535.048 406.162 532.747C415.516 526.124 411.092 509.034 420.471 502.41C425.755 498.745 432.96 500.11 439.078 498.34C450.126 495.079 455.384 482.287 456.244 470.759C457.103 459.231 454.929 447.5 457.862 436.326C462.387 419.464 478.288 403.992 472.853 387.383C466.735 368.852 441.227 368.018 424.82 357.703C401.738 343.293 398.528 311.591 385.559 287.625C373.904 266.212 343.264 240.072 316.77 242.119C297.581 243.636 289.593 253.799 285.7 267.173L283.399 266.44C276.624 264.72 268.635 263.178 265.702 256.934C262.264 249.653 268.003 240.426 264.438 233.271C262.568 229.53 258.7 227.457 255.691 224.549C252.683 221.642 250.483 216.839 253.163 213.527C255.261 210.746 259.686 210.746 262.264 208.269C263.264 207.266 263.904 205.961 264.082 204.556C264.261 203.152 263.968 201.728 263.25 200.507C257.41 191.128 247.071 207.03 242.596 210.493C241.451 211.407 240.252 212.252 239.006 213.021C238.854 213.754 238.677 214.412 238.576 215.17C238.146 217.471 237.818 219.847 237.439 222.224C237.059 224.6 236.63 226.9 236.276 229.252C235.998 231.173 235.795 233.094 235.542 235.016C235.29 236.937 235.012 238.858 234.809 240.754C234.809 241.69 234.557 242.549 234.481 243.485C229.761 286.227 232.058 329.454 241.281 371.456C245.407 390.104 250.925 408.416 257.79 426.239C260.596 433.824 263.806 441.534 267.219 448.992C271.441 458.27 275.941 467.396 280.921 476.27C285.497 484.79 290.478 493.158 295.837 501.273C303.127 512.508 310.991 523.359 319.399 533.784C326.848 543.087 334.727 552.028 343.036 560.607" fill="#C90800"/>
<path d="M277.18 118.927C285.396 113.719 298.138 114.806 302.663 123.427C305.874 129.595 303.851 137.078 301.803 143.651C299.039 152.601 296.267 161.558 293.486 170.525C292.397 173.146 292.107 176.031 292.652 178.817C294.548 185.036 304.256 185.314 308.654 180.637C313.053 175.96 313.711 168.78 313.711 162.308C313.711 155.837 313.306 148.91 316.643 143.323C324.96 129.469 346.651 134.879 360.809 127.118C369.581 122.314 374.561 112.859 380.528 104.795C386.494 96.7302 395.696 89.146 405.505 91.0167C408.817 91.6235 411.926 93.3173 415.289 93.6965C425.123 94.7836 432.985 81.3089 426.968 73.4719C425.529 71.9497 424.289 70.2507 423.277 68.4157C422.856 66.5879 423.072 64.6707 423.891 62.9828C424.709 61.295 426.081 59.9381 427.777 59.1377C431.209 57.658 434.946 57.025 438.673 57.2922C447.244 57.1405 455.788 57.0647 464.333 56.9635C473.788 56.9635 486.302 53.8034 486.353 44.3231C486.353 36.1575 476.064 31.0002 475.609 22.8345C475.748 20.8434 475.672 18.8429 475.381 16.8682C473.586 11.4076 465.673 12.343 460.364 14.3401C459.999 12.485 459.208 10.7398 458.055 9.24149C456.902 7.74319 455.417 6.53257 453.717 5.70466C452.017 4.87675 450.148 4.45407 448.257 4.46979C446.367 4.4855 444.505 4.93919 442.819 5.79524C437.283 9.15758 435.614 16.2615 432.985 22.1519C426.741 36.4355 413.291 45.9916 400.499 54.8399C396.202 57.7725 391.398 60.8567 386.216 60.3764C381.033 59.8961 376.432 53.5759 379.441 49.4046C381.514 46.5226 386.241 45.3849 386.292 41.8203C386.292 37.3962 378.707 36.6125 377.823 32.2389C382.575 20.4075 397.365 17.3485 409.095 12.3429C423.474 6.2184 435.304 -4.67379 442.592 -18.4996C443.318 -19.5206 443.819 -20.6838 444.063 -21.9126C444.307 -23.1413 444.288 -24.4079 444.008 -25.6288C442.845 -28.9658 438.775 -30.0529 435.235 -30.6849C426.943 -32.0248 416.426 -32.404 412.28 -25.0979C410.081 -21.1793 410.561 -16.3002 408.943 -12.1035C404.165 0.359869 386.191 -0.752476 374.41 5.36547C369.758 7.71658 365.89 11.4076 360.91 12.9497C355.525 14.6435 349.66 13.607 344.022 13.2278C343.036 13.2278 342.025 13.2278 341.014 13.2278C336.918 17.475 332.924 21.8485 329.056 26.2979C325.188 30.7474 321.472 35.2979 317.73 39.9243C300.267 61.8399 285.214 85.5721 272.832 110.71C268.433 119.533 264.413 128.559 260.697 137.786C256.981 147.014 253.618 156.418 250.584 165.999C255.641 158.643 258.725 149.087 261.228 142.362C264.565 133.488 269.09 124.135 277.18 118.927Z" fill="#C90800"/>
<path d="M1019.75 337.225C1020.54 331.588 1021.19 325.975 1021.67 320.363C1022.15 314.751 1022.56 309.164 1022.79 303.577C1023.01 299.051 1023.14 294.577 1023.16 290.077C1023.19 285.577 1023.16 280.622 1023.16 275.919C1022.85 261.874 1021.77 247.856 1019.93 233.928C1019.22 228.619 1018.41 223.31 1017.4 218.052C1016.39 212.793 1015.45 207.56 1014.32 202.327C1012.87 198.333 1011.27 194.372 1009.51 190.445C992.752 152.853 965.07 121.252 945.907 84.822C939.663 72.9906 934.859 63.2323 921.334 59.1368C901.362 53.0188 889.328 63.1564 877.623 41.6678C874.463 35.9038 868.345 30.0892 862.152 32.3392C863.036 36.7127 863.972 41.0863 864.857 45.5105C865.07 46.4336 865.07 47.3934 864.857 48.3166C864.124 51.1986 859.674 51.3756 857.424 49.4037C855.525 47.0581 854.053 44.3968 853.076 41.5414C851.692 39.0974 849.815 36.9684 847.563 35.2899C845.311 33.6115 842.735 32.4204 839.997 31.7925C837.26 31.1647 834.422 31.1138 831.664 31.6432C828.906 32.1726 826.288 33.2706 823.978 34.8672C824.076 32.8753 823.649 30.8925 822.739 29.1177C821.83 27.3428 820.47 25.8383 818.795 24.7549C818.227 26.5804 817.28 28.2653 816.016 29.6993C814.752 31.1334 813.199 32.2843 811.459 33.0766C809.719 33.869 807.832 34.2849 805.92 34.2972C804.008 34.3096 802.115 33.918 800.365 33.1481C799.733 29.2043 806.61 29.5077 809.416 26.6257C812.222 23.7437 810.023 19.2943 807.621 16.3617C801.082 8.79688 792.136 3.71675 782.29 1.97697C776.045 0.965741 769.118 1.16798 764.138 -2.85166C761.256 -5.17749 759.461 -8.59039 756.554 -10.8657C750.234 -15.7449 752.661 -5.40503 745.178 -2.54831C734.914 1.34493 729.352 2.50787 724.498 12.3674C723.528 14.3432 722.684 16.3781 721.97 18.46C720.978 21.1455 720.94 24.0902 721.86 26.8009C722.78 29.5116 724.604 31.8238 727.026 33.3504L727.784 33.7549C731.475 35.3476 732.562 40.0751 732.31 44.0694C732.057 48.0638 730.995 52.1846 732.436 55.9261C733.877 59.6677 739.161 62.221 741.815 59.2379C747.604 55.1424 748.135 46.9514 747.832 39.8728C747.529 32.7942 747.301 24.8561 752.206 19.8252C757.11 14.7943 768.689 18.2831 766.868 25.1089C765.781 29.1285 760.7 31.429 760.295 35.6004C759.891 39.7717 764.694 42.8054 768.916 43.1846C773.138 43.5638 777.663 42.7548 781.557 44.3981C785.45 46.0413 788.054 51.8559 784.641 54.5104C778.649 59.5666 766.717 47.6846 763 54.5104C761.989 56.2548 762.419 58.4795 761.964 60.4261C760.574 66.4429 752.635 67.5553 746.467 67.4289C740.298 67.3025 733.826 66.9233 728.619 63.5104C723.411 60.0975 720.756 52.3363 724.65 47.5835C721.894 44.9037 716.838 46.4458 714.664 49.6818C712.84 53.1085 712.042 56.9876 712.363 60.8559C706.119 58.5048 699.571 63.1059 695.147 67.9851C690.723 72.8643 686.172 78.7041 679.65 79.7153C673.127 80.7266 664.759 76.8586 660.639 82.0917C655.279 88.9175 666.327 100.117 660.917 106.867C657.832 110.659 651.917 109.673 647.012 110.305C634.043 112.024 627.066 129.62 634.144 140.642C641.223 151.664 658.288 153.51 668.627 145.521C675.807 140.035 679.65 131.415 685.287 124.386C690.925 117.358 700.456 111.746 708.647 115.437C711.768 117.155 714.511 119.485 716.711 122.288C720.352 126.358 724.018 130.429 727.658 134.575C729.984 137.103 732.512 140.389 731.753 143.827C731.096 146.583 728.619 148.428 727.304 150.906C723.613 158.035 733.447 166.706 740.854 163.546C748.262 160.386 750.512 150.072 746.795 142.943C741.739 133.108 727.734 126.535 729.68 115.563C737.998 110.507 748.793 118.622 751.877 127.875C754.961 137.128 753.647 147.24 756.023 156.619C758.399 165.999 767.475 175.428 776.652 172.319C775.54 164.33 774.453 156.392 773.34 148.428C779.382 145.142 783.908 157.934 790.708 156.898C794.854 156.24 796.169 150.603 795.006 146.507C793.843 142.412 791.239 138.746 791.113 134.499C790.961 126.763 800.365 121.226 807.798 123.552C815.231 125.878 819.655 133.943 819.983 141.653C819.824 144.722 820.062 147.798 820.691 150.805C822.688 157.15 829.792 160.032 835.506 163.445C841.219 166.858 846.73 173.861 843.292 179.574C841.75 182.102 838.59 184.201 839.171 187.159C839.753 190.116 843.191 191.279 842.837 193.883C842.509 195.602 840.537 196.411 838.843 196.968C834.494 198.055 829.969 197.953 825.722 199.319C821.475 200.684 817.329 203.92 817.025 208.293C816.621 214.563 823.548 218.608 826.278 224.245C829.009 229.883 827.492 236.077 828.806 241.942C830.045 247.377 833.559 252.054 836.214 256.883C844.455 272.38 844.278 290.759 846.882 308.077C848.045 315.914 850.927 324.863 858.385 327.391C862.617 328.351 867.03 328.141 871.152 326.784C882.857 323.978 895.067 320.944 904.017 313.082C912.966 305.22 917.87 290.835 911.146 280.824C910.408 279.454 909.194 278.402 907.733 277.866C905.615 277.7 903.492 278.11 901.59 279.054C895.573 280.849 888.949 277.689 884.854 272.835C880.758 267.981 878.786 261.914 876.789 255.922C874.64 249.349 872.517 242.726 870.292 236.077C874.413 233.549 880.05 235.647 883.387 239.237C886.725 242.827 888.317 247.529 890.82 251.7C898.404 264.568 912.84 271.925 927.275 275.692C931.016 276.441 934.621 277.754 937.969 279.585C948.207 286.183 949.016 302.818 960.115 307.975C963.199 309.416 966.814 309.745 969.645 311.616C973.918 314.447 975.46 319.984 976.117 325.09C977.331 334.571 976.825 344.279 979.404 353.531C981.983 362.784 988.53 371.733 997.935 373.225C1000.9 373.576 1003.91 373.34 1006.79 372.528C1009.66 371.717 1012.35 370.348 1014.7 368.497C1016.44 360.028 1017.98 351.509 1019.22 342.838C1019.37 340.84 1019.63 339.045 1019.75 337.225Z" fill="#C90800"/>
<path d="M821.918 462.507C815.927 462.81 814.334 466.072 810.466 469.94C805.536 474.996 798.812 479.723 794.236 484.729C786.5 493.223 790.115 508.746 780.61 515.445C778.515 516.558 776.482 517.782 774.517 519.111C772.689 520.973 771.665 523.479 771.665 526.088C771.665 528.698 772.689 531.203 774.517 533.066C776.455 534.826 778.862 535.988 781.446 536.41C784.03 536.831 786.681 536.495 789.079 535.442C793.853 533.224 797.655 529.341 799.772 524.521C801.39 521.133 802.604 517.215 805.764 515.167C811.149 511.653 818.152 515.849 824.598 515.875C852.028 516.102 848.16 461.167 821.918 462.507Z" fill="#C90800"/>
<path d="M665.55 228.593C662.549 224.023 658.487 220.248 653.71 217.59C648.932 214.932 643.582 213.471 638.117 213.332C638.117 213.332 611.949 212.333 603.377 235.521C600.302 244.083 600.391 253.463 603.626 261.965C604.82 265.201 606.343 268.305 608.169 271.231C614.563 281.272 634.587 308.711 634.587 308.711L639.145 308.871C645.373 300.899 661.018 274.472 665.897 265.91C671.813 255.221 673.225 240.021 665.55 228.593ZM640.311 271.033C635.888 270.869 631.613 269.397 628.027 266.803C624.441 264.208 621.705 260.609 620.165 256.459C618.625 252.31 618.35 247.797 619.376 243.491C620.401 239.186 622.681 235.281 625.926 232.271C629.171 229.261 633.236 227.282 637.606 226.583C641.977 225.884 646.457 226.496 650.479 228.344C654.501 230.191 657.885 233.19 660.202 236.961C662.519 240.732 663.666 245.105 663.498 249.528C663.389 252.463 662.703 255.348 661.478 258.018C660.254 260.688 658.515 263.09 656.362 265.087C654.208 267.084 651.682 268.638 648.928 269.658C646.174 270.678 643.246 271.146 640.311 271.033Z" fill="white"/>
<path d="M665.55 228.593C662.549 224.023 658.487 220.248 653.71 217.59C648.932 214.932 643.582 213.471 638.117 213.332C638.117 213.332 611.949 212.333 603.377 235.521C600.302 244.083 600.391 253.463 603.626 261.965C604.82 265.201 606.343 268.305 608.169 271.231C614.563 281.272 634.587 308.711 634.587 308.711L639.145 308.871C645.373 300.899 661.018 274.472 665.897 265.91C671.813 255.221 673.225 240.021 665.55 228.593ZM640.311 271.033C635.888 270.869 631.613 269.397 628.027 266.803C624.441 264.208 621.705 260.609 620.165 256.459C618.625 252.31 618.35 247.797 619.376 243.491C620.401 239.186 622.681 235.281 625.926 232.271C629.171 229.261 633.236 227.282 637.606 226.583C641.977 225.884 646.457 226.496 650.479 228.344C654.501 230.191 657.885 233.19 660.202 236.961C662.519 240.732 663.666 245.105 663.498 249.528C663.389 252.463 662.703 255.348 661.478 258.018C660.254 260.688 658.515 263.09 656.362 265.087C654.208 267.084 651.682 268.638 648.928 269.658C646.174 270.678 643.246 271.146 640.311 271.033Z" fill="#FF8287"/>
<path d="M670.144 228.948C667.147 224.38 663.087 220.608 658.313 217.952C653.539 215.297 648.192 213.839 642.731 213.702C642.731 213.702 616.563 212.704 607.991 235.891C604.916 244.454 605.004 253.833 608.24 262.336C609.425 265.584 610.955 268.695 612.802 271.617C619.177 281.642 639.201 309.082 639.201 309.082C639.201 309.082 664.755 276.578 670.511 266.281C676.388 255.559 677.803 240.395 670.144 228.948ZM640.327 271.212C637.377 271.131 634.472 270.463 631.782 269.245C629.093 268.028 626.674 266.287 624.666 264.123C622.658 261.959 621.102 259.417 620.088 256.645C619.075 253.872 618.624 250.925 618.764 247.977C618.928 243.554 620.4 239.279 622.994 235.693C625.588 232.107 629.188 229.371 633.338 227.831C637.487 226.291 642 226.016 646.306 227.042C650.611 228.067 654.516 230.347 657.526 233.592C660.536 236.837 662.515 240.902 663.214 245.273C663.913 249.643 663.3 254.123 661.453 258.145C659.606 262.167 656.607 265.551 652.836 267.868C649.065 270.185 644.692 271.332 640.269 271.164L640.327 271.212Z" fill="#FF555C"/>
<path d="M642.009 226.322C637.395 226.178 632.85 227.462 628.994 229.997C625.137 232.533 622.157 236.197 620.459 240.489C622.327 236.743 625.37 233.712 629.122 231.858C632.875 230.005 637.131 229.431 641.241 230.224C645.35 231.018 649.087 233.135 651.88 236.252C654.673 239.369 656.369 243.315 656.708 247.486C657.048 251.658 656.012 255.826 653.759 259.354C651.506 262.881 648.161 265.574 644.234 267.021C640.306 268.468 636.013 268.589 632.01 267.367C628.008 266.144 624.515 263.644 622.067 260.25C624.058 263.576 626.879 266.328 630.254 268.236C633.628 270.144 637.441 271.142 641.318 271.133C645.194 271.124 649.002 270.107 652.368 268.183C655.734 266.259 658.542 263.494 660.517 260.158C662.492 256.822 663.566 253.03 663.634 249.154C663.703 245.278 662.763 241.45 660.906 238.047C659.05 234.643 656.341 231.781 653.046 229.739C649.75 227.698 645.98 226.548 642.106 226.402L642.009 226.322Z" fill="#FF8287"/>
<path d="M515.249 457.639H609.016C609.016 457.639 600.724 442.47 576.58 444.745C553.524 446.844 552.361 437.313 540.631 436.15C528.901 434.987 519.168 443.962 515.249 457.639Z" fill="#FF595F"/>
<path d="M706.873 52.9774H845.639C845.639 52.9774 833.378 30.6545 797.606 33.8904C763.477 36.9999 761.758 22.9186 744.516 21.25C727.275 19.5815 712.663 32.7528 706.873 52.9774Z" fill="#FF595F"/>
<path d="M399.741 168.856H490.524C490.524 168.856 482.485 154.269 459.126 156.393C436.803 158.415 435.665 149.188 424.339 148.075C413.014 146.963 403.533 155.634 399.741 168.856Z" fill="#FF595F"/>
</g>
<defs>
<clipPath id="clip0_19_12702">
<rect width="864" height="1117" fill="white"/>
</clipPath>
</defs>
</svg>
